<?xml version="1.0" standalone="no"?>
<!DOCTYPE svg PUBLIC "-//W3C//DTD SVG 1.1//EN" "http://www.w3.org/Graphics/SVG/1.1/DTD/svg11.dtd" >
<svg xmlns="http://www.w3.org/2000/svg">
<metadata>
Created by FontForge 20120731 at Fri Jun 24 14:32:18 2016
 By admin
</metadata>
<defs>
<font id="iconfont" horiz-adv-x="1024" >
  <font-face 
    font-family="iconfont"
    font-weight="500"
    font-stretch="normal"
    units-per-em="1024"
    panose-1="2 0 6 3 0 0 0 0 0 0"
    ascent="896"
    descent="-128"
    x-height="792"
    bbox="5 -193 1126 891"
    underline-thickness="50"
    underline-position="-100"
    unicode-range="U+0078-E65B"
  />
<missing-glyph horiz-adv-x="374" 
d="M34 0v682h272v-682h-272zM68 34h204v614h-204v-614z" />
    <glyph glyph-name=".notdef" horiz-adv-x="374" 
d="M34 0v682h272v-682h-272zM68 34h204v614h-204v-614z" />
    <glyph glyph-name=".null" horiz-adv-x="0" 
 />
    <glyph glyph-name="nonmarkingreturn" horiz-adv-x="341" 
 />
    <glyph glyph-name="x" unicode="x" horiz-adv-x="1001" 
d="M281 543q-27 -1 -53 -1h-83q-18 0 -36.5 -6t-32.5 -18.5t-23 -32t-9 -45.5v-76h912v41q0 16 -0.5 30t-0.5 18q0 13 -5 29t-17 29.5t-31.5 22.5t-49.5 9h-133v-97h-438v97zM955 310v-52q0 -23 0.5 -52t0.5 -58t-10.5 -47.5t-26 -30t-33 -16t-31.5 -4.5q-14 -1 -29.5 -0.5
t-29.5 0.5h-32l-45 128h-439l-44 -128h-29h-34q-20 0 -45 1q-25 0 -41 9.5t-25.5 23t-13.5 29.5t-4 30v167h911zM163 247q-12 0 -21 -8.5t-9 -21.5t9 -21.5t21 -8.5q13 0 22 8.5t9 21.5t-9 21.5t-22 8.5zM316 123q-8 -26 -14 -48q-5 -19 -10.5 -37t-7.5 -25t-3 -15t1 -14.5
t9.5 -10.5t21.5 -4h37h67h81h80h64h36q23 0 34 12t2 38q-5 13 -9.5 30.5t-9.5 34.5q-5 19 -11 39h-368zM336 498v228q0 11 2.5 23t10 21.5t20.5 15.5t34 6h188q31 0 51.5 -14.5t20.5 -52.5v-227h-327z" />
    <glyph glyph-name="uniE600" unicode="&#xe600;" 
d="M512.5 847q-98.5 0 -188.5 -38.5t-154.5 -103.5t-103 -154.5t-38.5 -188t38.5 -188t103 -154.5t154 -103t188 -38t188.5 38t154.5 103t103 154.5t38.5 188t-38.5 188t-103 154.5t-154 103.5t-188 38.5zM512 -78q-90 0 -171.5 35t-140.5 94t-94 140.5t-35 171t35 171.5
t94 141t140.5 94t171.5 35t171.5 -35t140.5 -94t94 -141t35 -171.5t-35 -171t-94 -140.5t-140.5 -94t-171.5 -35zM606 93l-266 266l266 266l46 -45l-221 -221l221 -220z" />
    <glyph glyph-name="uniE601" unicode="&#xe601;" 
d="M1007 386l-495 463l-495 -462q-7 -7 -7.5 -17t6.5 -17t16.5 -7.5t17.5 6.5l462 431l462 -433q7 -6 17 -6t17 8q7 7 6.5 17t-7.5 17zM856 376q-10 0 -17 -7t-7 -17v-368h-192v256h-256v-256h-192v368q0 10 -7 17t-17 7t-17 -7t-7 -17v-416h288v256h160v-256h288v416
q0 10 -7 17t-17 7zM688 720h144v-128q0 -10 7 -17t17 -7t17 7t7 17v176h-192q-10 0 -17 -7t-7 -17t7 -17t17 -7z" />
    <glyph glyph-name="uniE602" unicode="&#xe602;" 
d="M418 603q0 38 27.5 65t66.5 27t66 -27t27 -65t-27 -65t-66 -27t-66.5 27t-27.5 65zM714 124h-182v350q48 7 80.5 43.5t32.5 85.5q0 54 -39 92.5t-94 38.5t-94 -38.5t-39 -92.5q0 -49 32.5 -85.5t80.5 -43.5v-350h-182q-8 0 -13.5 -5.5t-5.5 -13.5t5.5 -14t13.5 -6h404
q8 0 13.5 6t5.5 14t-5.5 13.5t-13.5 5.5zM847.5 229q-38.5 0 -66 27t-27.5 65t27.5 65t66 27t66 -27t27.5 -65t-27.5 -65t-66 -27zM848 451q-50 0 -87 -31.5t-44 -79.5h-117q-8 0 -14 -5.5t-6 -13.5t6 -14t14 -6h117q7 -47 44 -79t87 -32q55 0 93.5 38.5t38.5 92.5t-38.5 92
t-93.5 38zM176.5 229q-38.5 0 -66 27t-27.5 65t27.5 65t66 27t66 -27t27.5 -65t-27.5 -65t-66 -27zM424 301q8 0 14 6t6 14t-6 13.5t-14 5.5h-117q-7 48 -44 79.5t-87 31.5q-55 0 -93.5 -38t-38.5 -92t38.5 -92.5t93.5 -38.5q50 0 87 32t44 79h117z" />
    <glyph glyph-name="uniE603" unicode="&#xe603;" 
d="M315 428q-9 0 -16 6.5t-7 16t7 16.5t16 7h418q9 0 16 -7t7 -16.5t-7 -16t-16 -6.5h-418zM292 622.5q0 9.5 7 16t16 6.5h418q9 0 16 -6.5t7 -16t-7 -16.5t-16 -7h-418q-9 0 -16 7t-7 16.5zM834 153l-125 -146v146h125zM194 805h667v-606h-198v-232h-469v838zM147 850v-929
h550l210 247v682h-760z" />
    <glyph glyph-name="uniE604" unicode="&#xe604;" 
d="M623 10l-149 313l413 409zM850 765l-410 -407l-309 140zM971 826q1 3 0 6v1l-2 4q-1 1 -1 2q-2 3 -4 5v0q-2 2 -5 4h-1q-3 2 -5 2h-1q-3 1 -6 1h-2q-2 -1 -5 -1q0 -1 -1 -1l-879 -325q-16 -6 -16.5 -22.5t14.5 -22.5l370 -169l177 -374q7 -14 22 -14h1q17 1 22 16
l321 880v1q1 3 1 5v2z" />
    <glyph glyph-name="uniE605" unicode="&#xe605;" 
d="M994 -47h-953l168 301h92q8 0 14 -5.5t6 -13.5t-6 -14t-14 -6h-68l-125 -223h819l-125 223h-68q-8 0 -14 6t-6 14t6 13.5t14 5.5h91zM433 570.5q0 34.5 25 59t59.5 24.5t59 -24.5t24.5 -59t-24.5 -59t-59 -24.5t-59.5 24.5t-25 59zM641 570.5q0 50.5 -36.5 86.5t-87.5 36
t-87 -36t-36 -86.5t36 -86.5t87 -36t87.5 36t36.5 86.5zM517.5 781q91.5 0 156.5 -64t65 -155q0 -47 -19 -101.5t-44.5 -98.5t-59.5 -90t-56 -70.5t-43 -46.5q-21 21 -43 45.5t-56 70t-59 89t-44 99t-19 103.5q0 91 65 155t156.5 64zM504 113l14 -12l13 12q12 12 30.5 31
t60 70t73.5 101.5t57.5 119t25.5 127.5q0 107 -76.5 183t-184.5 76t-184.5 -76t-76.5 -183q0 -61 26 -129.5t58 -119t73.5 -101.5t59.5 -69t31 -30z" />
    <glyph glyph-name="uniE606" unicode="&#xe606;" 
d="M498.5 -45q-83.5 0 -158.5 11.5t-125.5 30.5t-80 42t-29.5 47v111q56 -45 164 -69.5t229 -24.5t229.5 24.5t164.5 69.5v-111q0 -24 -29.5 -47t-80 -42t-125.5 -30.5t-158.5 -11.5zM498.5 809q83.5 0 158.5 -11.5t125.5 -30.5t80 -42t29.5 -46t-29.5 -46.5t-80 -42
t-125.5 -30.5t-158.5 -12t-158.5 12t-125.5 30.5t-80 42t-29.5 46.5t29.5 46t80 42t125.5 30.5t158.5 11.5zM892 486q0 -23 -29.5 -46t-80 -42t-125.5 -30.5t-158.5 -11.5t-158.5 11.5t-125.5 30.5t-80 42t-29.5 46v111q56 -44 164 -69t229 -25t229.5 25t164.5 69v-111z
M892 278q0 -23 -29.5 -46.5t-80 -42t-125.5 -30.5t-158.5 -12t-158.5 12t-125.5 30.5t-80 42t-29.5 46.5v127q56 -45 164 -69.5t229 -24.5t229.5 24.5t164.5 69.5v-127zM498 854q-110 0 -208 -19.5t-164.5 -60.5t-66.5 -95v-593q0 -55 66.5 -96t164.5 -60.5t208 -19.5
t208.5 19.5t165 60.5t66.5 96v593q0 54 -66.5 95t-165 60.5t-208.5 19.5z" />
    <glyph glyph-name="uniE607" unicode="&#xe607;" 
d="M794 441h-536v-91h536v91zM265 -51h522l-109 356h-310zM817 305h-91l113 -372q4 -11 -3 -20t-19 -9h-582q-12 0 -18.5 9t-3.5 20l107 372h-85q-10 0 -16.5 6.5t-6.5 16.5v136q0 9 6.5 15.5t16.5 6.5h268v357q0 9 7 15.5t16 6.5t16 -6.5t7 -15.5v-357h268q10 0 16.5 -6.5
t6.5 -15.5v-136q0 -10 -6.5 -16.5t-16.5 -6.5z" />
    <glyph glyph-name="uniE608" unicode="&#xe608;" 
d="M493 356q-1 1 -2.5 1t-2.5 -1t-1 -2t1 -2q3 -3 5 -0.5t0 4.5zM539 368q8 -29 -13 -50q-15 -15 -35.5 -15t-35.5 15t-15 36t15 36.5t36 15.5q7 0 15 -3l184 175q8 6 17.5 6t16.5 -7.5t6.5 -17.5t-7.5 -17zM977 363q0 -141 -74.5 -261t-199.5 -179q-5 -3 -10 -3
q-15 0 -22 14q-4 9 -0.5 18.5t12.5 13.5q112 54 179.5 162t67.5 235q0 14 -1 31l-57 -8h-3q-9 0 -15.5 5.5t-7.5 14.5q-2 10 4 18t16 10l57 8q-19 109 -87 195l-40 -37q-7 -6 -16 -6q-11 0 -18 7q-6 8 -6 18t8 16l40 38q-68 70 -159 103v-4l-17 -58q-5 -18 -23 -18
q-3 0 -6 1q-10 3 -14.5 12t-1.5 18l16 58l2 4q-49 12 -99 12q-47 0 -93 -10q1 -3 2 -5l15 -58q3 -9 -2 -18t-14 -11q-3 -1 -6 -1q-18 0 -23 18l-16 58q0 1 -1 4q-94 -33 -165 -105l43 -39q7 -7 7.5 -17t-6.5 -18q-7 -7 -17 -7q-9 0 -16 6l-42 39q-68 -86 -88 -195h1h1l59 -9
q9 -1 15 -9t5 -18q-1 -9 -8 -15t-16 -6q-1 0 -3 1l-58 8h-2q-1 -17 -1 -31q0 -126 67 -234t179 -162q9 -4 12.5 -13.5t-1 -18.5t-13.5 -12.5t-18 1.5q-124 60 -198.5 179.5t-74.5 259.5q0 99 38 189t101.5 155t151.5 103.5t184.5 38.5t185 -38.5t152 -103.5t101 -155
t37.5 -189z" />
    <glyph glyph-name="uniE609" unicode="&#xe609;" 
d="M545 47v313q93 -5 157.5 -50t64.5 -106.5t-64.5 -106.5t-157.5 -50zM284 556q0 59 59 103t147 52v-310q-88 8 -147 52t-59 103zM821 203.5q0 77.5 -80 134t-196 61.5v314q102 -6 167 -57q7 -6 18.5 -6.5t20 5t9 13.5t-7.5 14q-81 64 -207 69v78q0 8 -8 13.5t-19.5 5.5
t-19.5 -5.5t-8 -13.5v-79q-110 -9 -185 -64t-75 -129.5t75 -130t185 -64.5v-314q-88 9 -147 53t-59 103q0 7 -8 13t-19 6t-19 -6t-8 -13q0 -75 75 -130.5t185 -64.5v-78q0 -8 8 -13.5t19.5 -5.5t19.5 5.5t8 13.5v77q116 5 196 61.5t80 134z" />
    <glyph glyph-name="uniE60A" unicode="&#xe60a;" 
d="M512 367q-2 -2 -5 0q-1 1 -1 2.5t1 2.5t2.5 1t2.5 -1q2 -3 0 -5zM661 542l-136 -126q-8 3 -15 3q-11 0 -21 -5l-90 79q-7 6 -16.5 5.5t-16 -7.5t-6 -16.5t8.5 -16.5l92 -81q-1 -4 -1 -8q0 -20 14.5 -34.5t35 -14.5t34.5 15q21 20 13 48l135 126q7 6 7.5 15.5t-6 16.5
t-16 7.5t-16.5 -6.5zM515 94q-118 0 -202 84t-84 202t83.5 202t202 84t202.5 -84t84 -202t-84 -202t-202 -84zM515 712q-90 0 -166.5 -44.5t-121 -121t-44.5 -166.5t44.5 -166.5t121 -121t166.5 -44.5t166.5 44.5t121 121t44.5 166.5t-44.5 166.5t-121 121t-166.5 44.5z
M514 -41q-114 0 -211 56.5t-153.5 153.5t-56.5 211t56.5 211t153.5 153.5t211 56.5t211 -56.5t153.5 -153.5t56.5 -211t-56.5 -211t-153.5 -153.5t-211 -56.5zM514 847q-95 0 -181.5 -37t-149 -99.5t-99.5 -149t-37 -181.5t37 -181.5t99.5 -149t149 -99.5t181.5 -37v23v-23
q95 0 181 37t149 99.5t100 149t37 181.5t-37 181.5t-100 149t-149 99.5t-181 37z" />
    <glyph glyph-name="uniE60B" unicode="&#xe60b;" 
d="M939 386q0 117 -58 216.5t-157.5 157t-216.5 57.5t-216.5 -57.5t-157 -157t-57.5 -216.5t57.5 -216.5t157 -157.5t216.5 -58t216.5 58t157.5 157.5t58 216.5zM986 386q0 -97 -38 -186t-102 -153t-152.5 -102t-186.5 -38v24v-24q-97 0 -185.5 38t-152.5 102t-102 153
t-38 186t38 185.5t102 153t152.5 102t185.5 37.5t186 -37.5t153 -102t102 -153t38 -185.5zM707 552l-166 -166l166 -167q7 -7 7 -16.5t-7 -16.5t-16.5 -7t-16.5 7l-167 166l-166 -166q-7 -7 -17 -7t-17 7t-7 16.5t7 16.5l167 167l-167 166q-7 7 -7 17t7 17t17 7t17 -7
l166 -167l167 167q7 7 16.5 7t16.5 -7t7 -17t-7 -17z" />
    <glyph glyph-name="uniE60C" unicode="&#xe60c;" 
d="M650 -31q56 61 89.5 163t36.5 225h170q-7 -135 -89 -240.5t-207 -147.5zM80 357h163q3 -122 36 -223t88 -162q-122 44 -201 148.5t-86 236.5zM366 789q-54 -62 -87 -163t-36 -222h-163q7 132 86 236.5t200 148.5zM537 404v407q77 -20 132 -136t60 -271h-192zM537 -50v407
h192q-5 -155 -60 -271t-132 -136zM489 357v-408q-79 15 -136.5 132.5t-61.5 275.5h198zM489 812v-408h-198q4 158 61.5 275.5t136.5 132.5zM946 404h-170q-3 123 -36.5 225t-89.5 163q125 -42 207 -148t89 -240zM513 862h-1h-2h-3h-3q-96 -2 -183.5 -41t-151 -103
t-100.5 -152.5t-37 -185.5v0q0 -97 37.5 -185.5t101 -152.5t151.5 -102.5t184 -40.5h2h2h1h1h1v0v0q98 0 187 38t153.5 102.5t102.5 154t38 187t-38 186.5t-102.5 153.5t-153.5 103t-187 38.5z" />
    <glyph glyph-name="uniE60D" unicode="&#xe60d;" 
d="M560 595v-108q0 -8 -5 -13t-12.5 -5t-12.5 5t-5 13v108q-39 -7 -65.5 -37.5t-26.5 -70.5q0 -45 32 -77.5t77.5 -32.5t77.5 32.5t32 77.5q0 40 -26.5 70.5t-65.5 37.5zM525 631v212q0 7 5 12.5t12.5 5.5t12.5 -5.5t5 -12.5v-212q54 -7 90.5 -48t36.5 -96
q0 -60 -42.5 -102.5t-102 -42.5t-102 42.5t-42.5 102.5q0 55 36.5 96t90.5 48zM845 483v-563q0 -7 -5.5 -12.5t-12.5 -5.5h-308q-8 0 -13 5.5t-5 12.5v103h-195q-8 0 -13 5.5t-5 12.5v125h-36q-8 0 -13 5t-5 13v108h-66q-9 0 -14.5 8t-1.5 17l81 170q1 101 62.5 182
t157.5 109q7 2 13.5 -1.5t8.5 -11t-1.5 -14t-10.5 -8.5q-86 -25 -140 -97.5t-54 -162.5q0 -4 -2 -8l-70 -148h55q7 0 12 -5t5 -12v-109h37q7 0 12 -5t5 -12v-125h197q7 -1 12 -6t5 -12v-103h272v545q0 88 -51 159t-134 98q-7 3 -10.5 9.5t-1 13.5t9 10.5t13.5 0.5
q94 -31 152 -111.5t58 -179.5z" />
    <glyph glyph-name="uniE60E" unicode="&#xe60e;" 
d="M512 -50q-117 0 -216.5 58t-157.5 157.5t-58 216.5q0 114 54.5 211t148 156t205.5 65v-445l380 -231q-60 -87 -153.5 -137.5t-202.5 -50.5zM536 814q151 -8 264 -110l-264 -264v374zM944 382q0 -108 -52 -204l-342 209l284 284q110 -124 110 -289zM512 862
q-97 0 -186 -38t-153 -102.5t-102 -153t-38 -186t38 -186t102 -153t153 -102.5t186 -38v24v-24q97 0 186 38t153 102.5t102 153t38 186t-38 186t-102 153t-153 102.5t-186 38z" />
    <glyph glyph-name="uniE60F" unicode="&#xe60f;" 
d="M540 165v194q38 -7 63 -34t25 -63t-25 -63.5t-63 -33.5zM414 504.5q0 33.5 22.5 60t57.5 35.5v-191q-35 9 -57.5 35.5t-22.5 60zM540 405v196q39 -6 64 -34q6 -7 15.5 -7.5t16.5 5.5t7.5 15.5t-5.5 16.5q-39 44 -98 50v45q0 10 -7 16.5t-16.5 6.5t-16 -6.5t-6.5 -16.5
v-46q-54 -9 -90 -49t-36 -92.5t36 -92.5t90 -49v-196q-35 8 -57.5 34.5t-22.5 60.5q0 9 -7 16t-16.5 7t-16 -7t-6.5 -16q0 -53 36 -93t90 -49v-46q0 -9 6.5 -16t16 -7t16.5 7t7 16v45q57 6 95.5 47t38.5 96t-38.5 95.5t-95.5 47.5zM521 -34q-113 0 -209 56t-152 152t-56 209
t56 209.5t152 152t209 55.5t209 -55.5t152 -152t56 -209.5t-56 -209t-152 -152t-209 -56zM521 846q-94 0 -179.5 -36.5t-148 -98.5t-99 -148t-36.5 -180t36.5 -179.5t99 -147.5t148 -99t179.5 -37v23v-23q94 0 179.5 37t148 99t99 147.5t36.5 179.5t-36.5 180t-99 148
t-148 98.5t-179.5 36.5z" />
    <glyph glyph-name="uniE610" unicode="&#xe610;" 
d="M547 149v122q22 -5 36.5 -22t14.5 -38.5t-14.5 -38.5t-36.5 -23zM459 380q0 20 12.5 36.5t32.5 22.5v-118q-20 7 -32.5 23t-12.5 36zM547 315v126q21 -5 35 -21q6 -7 15 -7.5t15.5 5.5t7 15t-5.5 16q-26 29 -67 36v26q0 9 -6 15.5t-15 6.5t-15.5 -6.5t-6.5 -15.5v-27
q-37 -8 -62 -37t-25 -67t25 -67t62 -37v-125q-20 7 -32.5 23t-12.5 36q0 9 -6 15.5t-15 6.5t-15 -6.5t-6 -15.5q0 -37 25 -66t62 -37v-28q0 -9 6.5 -15t15.5 -6t15 6t6 15v27q40 6 66.5 35.5t26.5 69t-26.5 69t-66.5 35.5zM528.5 -58q-88.5 0 -164 40t-119.5 109.5
t-44 151.5q0 179 260 394h137q258 -212 258 -394q0 -82 -44 -151.5t-119.5 -109.5t-164 -40zM701 821l-114 -141h-117l-114 141h345zM631 665l131 163q8 11 2.5 23t-19.5 12h-433q-14 0 -19.5 -12t2.5 -23l132 -163q-269 -225 -269 -422q0 -93 50 -172.5t135 -125.5
t185.5 -46t186 46t135 125.5t49.5 172.5q0 201 -268 422z" />
    <glyph glyph-name="uniE611" unicode="&#xe611;" 
d="M525.5 312q-32.5 0 -55.5 23t-23 55t23 54.5t55.5 22.5t55 -22.5t22.5 -54.5t-22.5 -55t-55 -23zM525 508q-49 0 -83.5 -34.5t-34.5 -83.5t34.5 -83.5t83.5 -34.5t84 34.5t35 83.5t-35 83.5t-84 34.5zM710 204q78 77 78 186t-77 186q56 -26 112.5 -67t85 -67.5
t51.5 -51.5q-23 -25 -51.5 -52t-85 -67.5t-113.5 -66.5zM91 390q23 25 51 51.5t85 67.5t113 67q-78 -77 -78 -186t78 -186q-56 26 -113 67t-85 67.5t-51 51.5zM525 168q-92 0 -157 65t-65 157t65 156.5t157 64.5t157.5 -64.5t65.5 -156.5t-65.5 -157t-157.5 -65z
M1002.5 402.5q-10.5 12.5 -28 31.5t-68 62.5t-103 76.5t-128.5 59.5t-149.5 26.5t-149.5 -26.5t-128.5 -59.5t-103 -76.5t-68 -62.5t-28.5 -31.5t0 -25.5t28.5 -31.5t68 -62t103 -76.5t128.5 -59.5t149.5 -26.5t149.5 26.5t128.5 59.5t103 76.5t68 62t28 31.5t0 25.5z" />
    <glyph glyph-name="uniE612" unicode="&#xe612;" 
d="M761 2h-251v64q0 35 24 63t63 39q13 3 15.5 18t-9.5 23q-28 18 -28 53q0 26 18 44.5t43 18.5t42.5 -18.5t17.5 -44.5q0 -35 -28 -53q-11 -8 -9 -23t16 -18q38 -11 62 -39t24 -63v-64zM719 198q20 29 20 64q0 45 -30.5 77t-73 32t-72.5 -32t-30 -77q0 -35 19 -64
q-39 -20 -62 -55.5t-23 -76.5v-87q0 -9 6.5 -16t15.5 -7h294q9 0 15 7t6 16v87q0 41 -22.5 76.5t-62.5 55.5zM153 535v-435q0 -13 -9 -22.5t-21.5 -9.5t-21.5 9.5t-9 22.5v648q0 4 4 4h159q17 0 28 -12l15 -17q10 -12 27 -19.5t32 -7.5h493q4 0 4 -5v-106h-654
q-19 0 -33 -15t-14 -35zM937 585h-40v106q0 21 -14 35.5t-33 14.5h-493q-16 0 -28 13l-15 17q-10 11 -27 19t-32 8h-159q-19 0 -33 -15t-14 -35v-648q0 -32 21.5 -54.5t52.5 -22.5h254q9 0 15.5 6.5t6.5 16t-6.5 16t-15.5 6.5h-188q7 15 7 32v435q0 4 4 4h675h1h61q4 0 4 -4
v-435q0 -13 -9 -22.5t-22 -9.5h-16q-9 0 -15 -6.5t-6 -16t6 -16t15 -6.5h16q31 0 52.5 22.5t21.5 54.5v435q0 20 -14 35t-33 15z" />
    <glyph glyph-name="uniE613" unicode="&#xe613;" 
d="M993 71q0 -35 -41 -63.5t-109 -46.5t-152 -27.5t-174.5 -9.5t-175 9.5t-152.5 27.5t-108.5 46.5t-40.5 63.5q0 30 28.5 54.5t75 40t84 24t76.5 14.5q9 1 16 -4.5t8.5 -14.5t-4 -16t-14.5 -8q-48 -7 -87 -16.5t-64.5 -19t-43 -20t-25 -19t-7.5 -15.5q0 -22 51 -45.5
t154.5 -41t228 -17.5t227.5 17.5t154.5 41t51.5 45.5q0 7 -7.5 15.5t-25.5 19t-43.5 20t-65 19t-87.5 16.5q-9 1 -14.5 8.5t-4 16t8.5 14t16 4.5q39 -6 77 -14.5t85 -23.5t75.5 -40t28.5 -55zM425 583q0 38 27 64.5t64.5 26.5t64.5 -26.5t27 -64.5t-27 -64.5t-64.5 -26.5
t-64.5 26.5t-27 64.5zM651 583.5q0 55.5 -39.5 95t-95 39.5t-95 -39.5t-39.5 -95t39.5 -95t95 -39.5t95 39.5t39.5 95zM516.5 815q99.5 0 170.5 -70.5t71 -170.5q0 -52 -20.5 -112t-48.5 -108t-65 -98.5t-61 -77.5t-47 -51q-23 23 -46.5 50t-61 76.5t-65 98t-48 109
t-20.5 113.5q0 100 71 170.5t170.5 70.5zM502 81l15 -14l14 14q14 13 33.5 33.5t65 77t80.5 112t63 130.5t28 140q0 118 -83.5 201t-201 83t-201 -83t-83.5 -201q0 -67 28 -142.5t62.5 -131t80.5 -111t65.5 -75.5t33.5 -33z" />
    <glyph glyph-name="uniE614" unicode="&#xe614;" 
d="M995 122v-101q0 -47 -33 -80.5t-80 -33.5h-727q-47 0 -80 33.5t-33 80.5v101q0 81 108 113l108 30q9 2 16 -2t9.5 -12.5t-2 -15.5t-12.5 -10l-108 -30q-27 -8 -45 -18.5t-24 -22.5t-7.5 -18t-1.5 -14v-101q0 -30 21 -51.5t51 -21.5h727q30 0 51 21.5t21 51.5v101
q0 51 -78 73l-103 29q-8 3 -12.5 10t-2 15.5t9.5 12.5t16 2l103 -29q108 -32 108 -113zM292 608q0 95 67 162t161.5 67t161.5 -67t67 -162v-132q0 -94 -67 -161t-161.5 -67t-161.5 67t-67 161v132zM520.5 207q111.5 0 190 79t78.5 190v132q0 112 -78.5 190.5t-190 78.5
t-190 -78.5t-78.5 -190.5v-132q0 -111 78.5 -190t190 -79z" />
    <glyph glyph-name="uniE615" unicode="&#xe615;" 
d="M870 476q0 98 -48 181.5t-131 132t-180.5 48.5t-180 -48.5t-130.5 -132t-48 -181.5q0 -96 47.5 -179t129 -132t177.5 -50h20v-133l226 226q56 52 87 122t31 146zM910 476q0 -84 -34 -162t-97 -135l-293 -296v192q-103 7 -189 62t-136 145t-50 194q0 110 53.5 202.5
t145.5 146.5t200.5 54t200.5 -54t145.5 -146.5t53.5 -202.5zM705 412h-399q-8 0 -14 -6t-6 -14.5t6 -14.5t14 -6h399q9 0 15 6t6 14.5t-6 14.5t-15 6zM726 543.5q0 -8.5 -6 -14.5t-15 -6h-399q-8 0 -14 6t-6 14.5t6 14.5t14 6h399q9 0 15 -6t6 -14.5z" />
    <glyph glyph-name="uniE616" unicode="&#xe616;" 
d="M891 444l-407 -404q0 60 -43 103q-40 40 -91 49l400 397l141 -141q1 0 1 -1.5t-1 -2.5zM104 106q44 -22 75 -52q31 -31 54 -77h-129v129zM415 -23h-131q-28 64 -73 109q-45 44 -107 70v135q29 23 67 20.5t64 -28.5q29 -29 36.5 -64t-8.5 -49q-7 -7 -7 -16.5t7 -16
t16.5 -6.5t16.5 7q13 16 48.5 8.5t64.5 -36.5q27 -27 29 -65.5t-23 -67.5zM574 759q2 2 4 0l139 -138l-399 -397q-10 51 -50 91q-41 40 -99 42zM665 801l268 -266q4 -4 4 -10t-4 -10l-22 -22l-287 286l22 22q9 9 19 0zM983 525q0 25 -18 42l-267 266q-18 17 -42.5 17
t-42.5 -17l-28 -28q-5 1 -9 1q-20 0 -35 -15l-483 -480v-380h382l483 481q15 14 15 34q0 4 -1 9l28 28q18 17 18 42z" />
    <glyph glyph-name="uniE617" unicode="&#xe617;" 
d="M192.5 223q7.5 0 12.5 5l150 150l117 -117l255 256l68 -69l93 93q6 6 6 13.5t-5.5 13t-13 5.5t-12.5 -6l-68 -67l-68 69l-255 -256l-117 117l-176 -176q-5 -5 -5 -12.5t5.5 -13t13 -5.5zM920 48q0 -8 -5.5 -13t-13.5 -5h-829v688q0 8 5 13t13 5t13 -5t5 -13v-651h793
q8 0 13.5 -5.5t5.5 -13.5z" />
    <glyph glyph-name="uniE618" unicode="&#xe618;" 
d="M731 -42h-425q-28 0 -47.5 19.5t-19.5 47.5v54h209q7 -22 26.5 -36.5t44 -14.5t44 14.5t26.5 36.5h209v-54q0 -28 -19.5 -47.5t-47.5 -19.5zM306 814h425q28 0 47.5 -19.5t19.5 -47.5v-31h-559v31q0 28 19.5 47.5t47.5 19.5zM518.5 130q11.5 0 20 -8.5t8.5 -20.5
t-8.5 -20t-20 -8t-20 8t-8.5 20t8.5 20.5t20 8.5zM588 124q-7 22 -26 36.5t-43 14.5t-43.5 -14.5t-26.5 -36.5h-210v547h559v-547h-210zM731 859h-425q-46 0 -79 -33t-33 -79v-722q0 -46 33 -79t79 -33h425q46 0 79 33t33 79v722q0 46 -33 79t-79 33z" />
    <glyph glyph-name="uniE619" unicode="&#xe619;" 
d="M948 338h-327v-49q0 -8 -6 -14.5t-15 -6.5h-178q-8 0 -14.5 6.5t-6.5 14.5v49h-4h-323v-222q0 -4 5 -4h865q4 0 4 4v222zM444 359v-49h134v49q0 9 6.5 15t15.5 6h348v275h-874v-275h323h25q9 0 15.5 -6t6.5 -15zM991 676v-560q0 -19 -14 -32.5t-33 -13.5h-865
q-20 0 -34 13.5t-14 32.5v560q0 9 6.5 15t15.5 6h901q4 0 8 -1q3 1 7 1q9 0 15.5 -6t6.5 -15zM144 549h724q9 0 15 6.5t6 15t-6 14.5t-15 6h-724q-9 0 -15 -6t-6 -14.5t6 -15t15 -6.5zM868 457h-724q-9 0 -15 6.5t-6 15t6 14.5t15 6h724q9 0 15 -6t6 -14.5t-6 -15t-15 -6.5z
" />
    <glyph glyph-name="uniE61A" unicode="&#xe61a;" 
d="M556 655v-254q0 -9 -6.5 -15t-15.5 -6t-15 6t-6 15v212l-41 -28q-7 -5 -16 -3.5t-14 8.5t-3.5 16t8.5 14l75 53q11 8 22.5 2t11.5 -20zM699 174v-244q0 -13 -11 -19q-5 -2 -10 -2q-7 0 -13 3l-141 97l-142 -97q-11 -7 -22.5 -1t-11.5 19v244q0 9 6.5 15t15.5 6t15.5 -6
t6.5 -15v-202l120 81q12 8 24 0l120 -81v202q0 9 6.5 15t15.5 6t15 -6t6 -15zM523.5 258q-114.5 0 -195.5 81t-81 195.5t81 195.5t195.5 81t196 -81t81.5 -195.5t-81.5 -195.5t-196 -81zM524 855q-87 0 -161 -43t-117 -117t-43 -160.5t43 -160.5t117 -117t161 -43t160.5 43
t116.5 117t43 160.5t-43 160.5t-116.5 117t-160.5 43z" />
    <glyph glyph-name="uniE61B" unicode="&#xe61b;" 
d="M693 -28v199h166zM196 818h671v-600h-220v-261h-451v861zM149 865v-955h553l212 253v702h-765z" />
    <glyph glyph-name="uniE61C" unicode="&#xe61c;" 
d="M511.5 869q-98.5 0 -188.5 -38.5t-155 -103.5t-103.5 -155t-38.5 -188.5t38.5 -188.5t103.5 -155t155 -103.5t188.5 -38.5t188.5 38.5t155 103.5t103.5 155t38.5 188.5t-38.5 188.5t-103.5 155t-155 103.5t-188.5 38.5zM511.5 -51q-88.5 0 -169 34.5t-138.5 92.5
t-92.5 138.5t-34.5 168.5t34.5 168.5t92.5 139t138.5 93t169 34.5t169 -34.5t138.5 -93t92.5 -139t34.5 -168.5t-34.5 -168.5t-92.5 -138.5t-138.5 -92.5t-169 -34.5zM695 418h-149v148q0 10 -11.5 18t-22.5 8t-22.5 -8t-11.5 -18v-148h-150q-10 0 -17.5 -11.5t-7.5 -22.5
t7.5 -22.5t17.5 -11.5h150v-150q0 -10 11.5 -18t22.5 -8t22.5 8t11.5 18v150h149q10 0 17.5 11.5t7.5 22.5t-7.5 22.5t-17.5 11.5z" />
    <glyph glyph-name="uniE61D" unicode="&#xe61d;" 
d="M848.5 48q65.5 66 101.5 151q38 89 38 185.5t-38 185.5q-36 85 -101.5 151t-151.5 102q-88 37 -185 37t-185 -37q-86 -36 -151.5 -102t-101.5 -151q-38 -89 -38 -185.5t38 -185.5q36 -85 101.5 -151t151.5 -102q88 -37 185 -37t185 37q86 36 151.5 102zM512 -49
q-88 0 -168.5 34.5t-138.5 92.5t-92.5 138.5t-34.5 168.5t34.5 168t92.5 138t138.5 92.5t168.5 34.5t168.5 -34.5t138.5 -92.5t92.5 -138t34.5 -168t-34.5 -168.5t-92.5 -138.5t-138.5 -92.5t-168.5 -34.5zM317 278q-4 -2 -9.5 -5t-8 -4.5t-4 -4.5t-1.5 -7q0 -9 6.5 -15.5
t15.5 -6.5q15 0 26 10q59 56 59 137q0 44 -19 82.5t-52 64.5q-8 4 -19 3q-17 -2 -17 -22q0 -4 1.5 -7t3.5 -5t7.5 -5.5t8.5 -6.5q44 -43 44 -105q0 -59 -42 -103zM731 388q0 165 -101 295q-10 16 -24 16q-9 0 -14.5 -6t-5.5 -15q0 -8 10 -20q91 -119 91 -268
q0 -151 -92 -270q-6 -7 -6 -15q0 -9 6.5 -16t16.5 -7q16 0 21 16q98 129 98 290zM565 381q0 68 -26.5 128t-74.5 105q-9 8 -18 8t-15.5 -6.5t-6.5 -15.5q0 -5 2.5 -9t5 -5.5t10.5 -7.5q82 -82 82 -196q0 -113 -79 -194l-7 -6q-7 -5 -10.5 -9.5t-3.5 -10.5q0 -9 6.5 -15.5
t15.5 -6.5q8 0 17 7.5t13 12.5q89 93 89 221z" />
    <glyph glyph-name="uniE61E" unicode="&#xe61e;" 
d="M513 860q-97 0 -185.5 -37.5t-152.5 -101.5t-101.5 -152.5t-37.5 -185.5t37.5 -185t101.5 -152t152.5 -102t185.5 -38t185 38t152 102t102 152t38 185t-38 185.5t-102 152.5t-152 101.5t-185 37.5zM513 -54q-89 0 -170 34.5t-139.5 93t-93.5 139.5t-35 170t35 170
t93.5 139.5t139.5 93.5t170 35t170 -35t139.5 -93.5t93 -139.5t34.5 -170t-34.5 -170t-93 -139.5t-139.5 -93t-170 -34.5zM417 477.5q0 -24.5 -17.5 -42t-42 -17.5t-42 17.5t-17.5 42t17.5 42t42 17.5t42 -17.5t17.5 -42zM592 423h-2q-9 1 -14 7.5t-3 15.5q2 19 14 38
q26 38 75 38t74 -38q12 -19 15 -38l-39 -6q-2 12 -10 23q-13 20 -40 20q-28 0 -41 -21q-8 -11 -9 -22q-1 -7 -6.5 -12t-13.5 -5zM500 117q-81 0 -140 53q-6 5 -6.5 13.5t5 14.5t14 6.5t14.5 -5.5q35 -31 81 -39.5t91 7.5q46 16 76 53t37 87q1 8 7.5 13t15 3.5t13 -8
t3.5 -14.5q-9 -60 -45.5 -105.5t-92.5 -66.5q-36 -12 -73 -12z" />
    <glyph glyph-name="uniE61F" unicode="&#xe61f;" horiz-adv-x="1000" 
d="M676 471q16 0 34 -2q-23 106 -123.5 176t-229.5 70q-95 0 -175.5 -39.5t-127.5 -108t-47 -150.5q0 -138 140 -236l-35 -106l122 62q89 -18 123 -18q15 0 33 2q-11 37 -11 73q0 115 86.5 196t210.5 81zM485.5 573q22.5 0 38.5 -16t16 -38.5t-16 -38t-38.5 -15.5t-38 15.5
t-15.5 38t15.5 38.5t38 16zM240.5 464q-22.5 0 -38 15.5t-15.5 38t15.5 38.5t38 16t38.5 -16t16 -38.5t-16 -38t-38.5 -15.5zM994 197q0 68 -41.5 127t-110 93t-146.5 34q-124 0 -211 -74.5t-87 -179.5t87 -179.5t211 -74.5q35 0 105 18l96 -53l-26 87q123 92 123 202z
M605 236q-16 0 -27.5 11.5t-11.5 27.5t11.5 27t27.5 11t27 -11t11 -27t-11 -27.5t-27 -11.5zM797 234q-16 0 -27 11.5t-11 27.5t11 27t27 11t27.5 -11t11.5 -27t-11.5 -27.5t-27.5 -11.5z" />
    <glyph glyph-name="uniE620" unicode="&#xe620;" 
d="M943 257l-3 17l-3 16l-2 8l-2 9l-3 8l-3 10l-4 8l-4 10l-6 14l-7 13l-6 12l-5 11l-6 10l-4 9l-10 13l-12 18l-3 5v2v1l2 6l2 6l3 11l1 5v6l1 4v5l-1 5l-1 5l-2 8l-2 9l-2 8l-3 8l-4 6l-3 6l-3 6l-5 8l-2 3v3l-3 16l-1 11l-2 13l-2 13l-5 16l-2 9l-2 7l-2 9l-3 9l-3 9
l-4 9l-8 18l-4 8l-5 10l-6 8l-5 10l-7 8l-6 9l-7 8l-8 8l-8 8l-9 8l-4 3l-5 3l-10 7l-11 8l-11 7l-12 6l-13 5l-12 6l-13 4l-14 4l-13 3l-13 3l-13 3l-14 2l-13 2l-14 1h-40h-14l-25 -4l-13 -2l-13 -3l-12 -3l-12 -3l-12 -4l-11 -4l-11 -6l-11 -4l-9 -6l-10 -6l-9 -6l-9 -7
l-8 -7l-11 -11l-10 -10l-9 -10l-9 -10l-8 -10l-7 -10l-6 -10l-4 -5l-3 -5l-6 -10l-5 -9l-4 -9l-4 -10l-4 -8l-3 -9l-3 -8l-3 -8l-4 -15l-3 -14l-1 -11l-2 -10v-20l-3 -3l-2 -4l-2 -4l-2 -4l-2 -8l-3 -8v-7l-1 -5v-6l-5 -8l-4 -8l-3 -7l-2 -7l-2 -6l-1 -7v-15v-4l2 -7l1 -5
l-3 -2l-8 -7l-11 -10l-7 -6l-7 -6l-5 -5l-3 -4l-9 -9l-7 -9l-6 -7l-8 -11l-7 -10l-7 -11l-5 -10l-5 -11l-5 -10l-4 -10l-4 -11l-3 -10l-3 -10l-2 -9l-2 -9l-1 -9l-2 -9v-17v-23v-7l3 -12v-5l2 -5l1 -5l2 -4l3 -6l2 -1l1 -3l1 -1h2l7 1l7 2l5 2l7 4l5 4l5 4l6 5l4 5l5 6l3 6
l4 4l3 5l4 8l1 4l1 2l1 2l1 2h1l1 1h1v-1h1h1l3 -11l2 -9l4 -10l4 -9l3 -8l5 -7l3 -8l4 -8l5 -6l3 -6l10 -11l8 -10l7 -8l8 -6l7 -6l10 -9l4 -2l1 -1v-1l-1 -1l-2 -1h-8l-7 -1l-6 -1l-6 -2l-5 -1l-5 -2l-5 -2l-4 -3l-4 -1l-3 -3l-3 -1l-4 -3l-4 -5l-1 -3l-2 -2l-3 -6l-1 -4
l-2 -5l-1 -4v-7v-4v-4l-1 -4v-3l1 -4v-3l3 -7l1 -3l2 -3l2 -3l2 -2l3 -3l3 -2l6 -6l7 -4l8 -4l8 -3l9 -4l10 -2l10 -3l10 -2l11 -2l11 -2l11 -1l22 -3h23h40h10l8 1l9 1l7 1l13 2l8 3l9 2l15 6l8 3l6 3l11 7l10 5l8 4l5 5l15 -1l13 -1h11l4 -1l4 -2l7 -2l7 -2l13 -4l14 -6
l14 -3l13 -3l14 -4l14 -2l14 -1l13 -2l13 -1l14 -1h38l12 1l12 1l11 2l11 2l10 2l10 3l5 1l4 2l9 3l8 4l7 4l7 4l6 4l3 3l3 3l3 4l4 6l2 3v2l2 3l1 3v3l1 4l-1 4l-1 4l-2 5l-1 4l-3 4l-3 4l-2 4l-4 3l-9 7l-9 7l-9 5l-9 6l-22 11l-6 3l-1 2l-1 1l11 10l4 6l4 4l7 11l7 11
l6 10l6 9l7 19l6 16l4 11l2 3l2 3l2 2h1h1l5 -12l5 -11l4 -6l4 -5l3 -6l5 -7l4 -4l2 -3l3 -2l2 -2l2 -1l4 -2l3 -1h3l3 1l3 1l3 2l3 2l2 3l3 3l2 3l3 5l2 3l2 5l1 4l4 11l2 11l1 13l1 7v20z" />
    <glyph glyph-name="uniE621" unicode="&#xe621;" 
d="M-57 853zM743 324q-16 4 -21 10.5t-2 11.5l3 6q2 1 3 3.5t4 9.5t5 14t3 17.5t-0.5 20t-6.5 20.5t-14 20q-16 15 -40.5 19.5t-49.5 0.5t-47 -10t-36 -11l-15 -7q-11 -3 -18 -4t-11 0.5t-6 3t-1.5 7.5t1 10.5t2.5 14t3 15.5q0 13 -1.5 24.5t-7 26t-16 23t-26.5 14
t-41.5 3.5t-57.5 -13q-38 -13 -78 -39t-69 -54.5t-53.5 -54.5t-37.5 -43l-12 -18q-36 -47 -54 -94.5t-17 -71.5v-23q7 -53 33 -95t62 -68t84.5 -44.5t93 -26.5t94.5 -11q81 -7 169 12.5t163.5 66.5t106.5 114q19 38 19.5 72.5t-12 56t-31.5 38t-36 24t-31 9.5zM407 -19
q-119 -5 -202.5 46.5t-83.5 131.5q0 78 83 135t203 62.5t203 -40t83 -123.5q0 -79 -84.5 -142.5t-201.5 -69.5zM375 287q-32 -3 -57.5 -15t-40 -26.5t-24.5 -32t-13.5 -34t-4.5 -30t-1 -21.5l1 -9v-4q0 -3 2 -13t6 -18.5t12.5 -18.5t21.5 -16q72 -36 135 -22t102 64
q15 18 20 46t-2 56t-24.5 51t-52.5 35.5t-80 7.5zM335 78q-7 -1 -13 -0.5t-11 2.5t-9.5 4t-8 6t-6.5 7.5t-4.5 9t-1.5 10.5q0 12 6.5 23.5t18 20t26.5 9.5q10 1 19.5 -0.5t16 -5.5t11.5 -9t7 -11.5t2 -14.5q0 -12 -7 -23t-19.5 -18.5t-26.5 -9.5zM429 158q-8 -6 -16 -5.5
t-12 7.5l-2 4q-1 3 -1 5v4q0 4 1 6l2 4q1 2 4 3l3 5q9 7 17 5.5t12 -8.5q3 -5 2.5 -10.5t-3.5 -10.5t-7 -9zM821 388q6 0 11.5 3.5t9 8.5t4.5 10q1 2 1 4q13 126 -88 143q-30 6 -55 1q-8 0 -13.5 -3.5t-9.5 -10t-4 -12.5q0 -11 8 -19t19 -8q86 20 92 -55q2 -19 -2 -35
q0 -11 8 -19t19 -8zM802 700q-49 11 -130 -5q-1 0 -3 -1l-1 -2l-1 -1q-12 -4 -19.5 -14.5t-7.5 -22.5q0 -16 11 -27t26 -11h3q2 0 5.5 1t8 1.5t9.5 2t9 3.5t15 2t27 -2t35 -8.5t38.5 -16.5t39 -27.5t33.5 -40.5q29 -65 11 -126q0 -1 -0.5 -2t-1.5 -5.5t-2 -8.5l-3 -10
q-1 -6 -1 -10q0 -10 5.5 -17t14 -9.5t19.5 -2.5q31 0 36 37q14 43 15.5 82.5t-5.5 69t-21.5 55.5t-33.5 44.5t-42 33t-44.5 23.5t-44.5 15z" />
    <glyph glyph-name="uniE622" unicode="&#xe622;" 
d="M246 724v-853h640v853h-640zM566 511q44 0 75.5 -31.5t31.5 -75.5t-31.5 -75t-75.5 -31t-75 31t-31 75t31 75.5t75 31.5v0zM726 84h-320v54q0 44 31.5 75t75.5 31h107q44 0 75 -31t31 -75v-54zM140 671h80v-160h-80v160zM140 458h80v-160h-80v160zM140 244h80v-160h-80
v160zM140 31h80v-160h-80v160zM140 31z" />
    <glyph glyph-name="uniE623" unicode="&#xe623;" 
d="M670 836q-17 5 -30 9q-63 17 -127 17q-28 0 -56 -4q-66 -7 -127 -32l296 -296q7 -5 13 -11q18 -15 31 -33v350zM639 676v1v-1zM951 590q-6 14 -15 28q-32 56 -77 101q-19 19 -42 37q-52 42 -113 67v-418q1 -8 2 -17q2 -23 -2 -45zM817 499zM977 211q5 15 9 30
q17 63 17 127q0 25 -3 56q-8 66 -33 127l-296 -296q-6 -9 -10 -13q-15 -17 -34 -31h350zM817 242h1h-1zM728 -73q15 7 28 15q56 32 102 78q19 19 37 41q41 53 67 113h-419q-7 -1 -17 -2q-22 -1 -45 2zM637 61h1h-1zM354 -98q15 -5 30 -9q62 -17 127 -17q28 0 56 4
q66 7 127 32l-296 296q-7 5 -13 11q-17 14 -31 33v-350zM385 62v-1v1zM72 151q6 -13 15 -28q33 -56 78 -102q19 -19 42 -37q51 -41 113 -67v419q-2 7 -2 17q-2 22 2 45zM207 242v-1h-1zM47 527q-5 -16 -9 -30q-17 -63 -17 -127q0 -27 3 -56q8 -66 33 -127l296 296q5 6 10 13
q15 17 34 31h-350zM206 496zM293 809q-14 -7 -27 -15q-56 -32 -102 -78q-19 -19 -37 -41q-41 -52 -67 -113h419l16 2q23 1 45 -2zM385 675h-1h1z" />
    <glyph glyph-name="uniE624" unicode="&#xe624;" 
d="M633 384q0 -25 17.5 -42.5t42.5 -17.5t42.5 17.5t17.5 42.5t-17.5 42.5t-42.5 17.5t-42.5 -17.5t-17.5 -42.5zM453 384q0 -25 17.5 -42.5t42.5 -17.5t42.5 17.5t17.5 42.5t-17.5 42.5t-42.5 17.5t-42.5 -17.5t-17.5 -42.5zM272 384q0 -25 18 -42.5t42.5 -17.5t42.5 17.5
t18 42.5t-18 42.5t-42.5 17.5t-42.5 -17.5t-18 -42.5zM511.5 -96q-97.5 0 -186 38t-153 102.5t-102.5 153.5t-38 186.5t38 186t102.5 153t153 102.5t186 38t186.5 -38t153.5 -102.5t102.5 -153t38 -186t-38 -186.5t-102.5 -153.5t-153.5 -102.5t-186.5 -38zM512 828
q-90 0 -172.5 -35t-142 -94.5t-94.5 -142t-35 -172.5t35 -172.5t94.5 -142t142 -94.5t172.5 -35t172.5 35t142 94.5t94.5 142t35 172.5t-35 172.5t-94.5 142t-142 94.5t-172.5 35z" />
    <glyph glyph-name="uniE625" unicode="&#xe625;" 
d="M737 -96h-450q-49 0 -83.5 35t-34.5 83v720q0 50 34 86t84 36h450q49 0 83.5 -35t34.5 -83v-720q0 -50 -34 -86t-84 -36v0zM796 742q0 25 -17 42t-42 17h-450q-25 0 -42 -17t-17 -42v-29h568v29zM796 654h-568v-480h568v480zM796 114h-568v-88q0 -25 17 -42t42 -17h450
q25 0 42 17t17 42v88zM512 -7q-19 0 -31.5 12.5t-12.5 31.5t12.5 31.5t31.5 12.5t31.5 -12.5t12.5 -31.5t-12.5 -31.5t-31.5 -12.5v0zM512 -7z" />
    <glyph glyph-name="uniE626" unicode="&#xe626;" 
d="M511.5 864q-97.5 0 -186.5 -38t-153 -102t-102 -153t-38 -186.5t38 -186.5t102 -153t153 -102t186.5 -38t186.5 38t153 102t102 153t38 186.5t-38 186.5t-102 153t-153 102t-186.5 38zM752 517l-300 -299q-8 -9 -17 0l-164 163q-11 18 2 31.5t32 2.5l139 -138l274 274
q16 15 32 0.5t2 -34.5z" />
    <glyph glyph-name="uniE627" unicode="&#xe627;" 
d="M759 506l-43 43l-244 -245l-145 146l-43 -43l188 -188l41 41zM186 710v-651h651v651h-651zM799 97h-575v575h575v-575z" />
    <glyph glyph-name="uniE628" unicode="&#xe628;" 
d="M945 -15h-190v289h190v-289zM968 321h-237q-9 0 -16 -6.5t-7 -16.5v-337q0 -10 7 -16.5t16 -6.5h237q10 0 17 6.5t7 16.5v337q0 10 -7 16.5t-17 6.5zM614 -15h-189v534h189v-534zM638 566h-237q-10 0 -17 -7t-7 -17v-581q0 -10 7 -16.5t17 -6.5h237q10 0 16.5 6.5
t6.5 16.5v581q0 10 -6.5 17t-16.5 7zM278 -16h-189v792h189v-792zM302 823h-237q-10 0 -17 -6.5t-7 -16.5v-839q0 -10 7 -17t17 -7h237q10 0 17 7t7 17v839q0 10 -7 16.5t-17 6.5z" />
    <glyph glyph-name="uniE629" unicode="&#xe629;" 
d="M985 623q0 -9 -6 -15.5t-15 -6.5t-15.5 6.5t-6.5 15.5l-1 154l-294 -294q-7 -7 -16 -7t-15.5 6.5t-6.5 15.5t7 15l294 295h-154q-9 1 -15 7t-6 15t6.5 15.5t15.5 6.5l227 -1zM763 -12q-27 -28 -67 -28t-68 28l-506 507q-28 28 -28 67.5t28 67.5l114 115l127 -127l-43 -44
q-27 -26 -27 -63.5t27 -63.5l260 -261q27 -26 64 -26t64 26l43 44l127 -127zM767 276q-6 6 -15.5 6t-15.5 -6l-59 -59q-14 -14 -33 -14t-33 14l-261 261q-13 13 -13 32.5t13 33.5l59 59q7 6 7 15t-7 16l-157 157q-7 7 -16 7t-15 -7l-130 -130q-41 -41 -41 -98.5t41 -98.5
l507 -507q40 -40 98 -40t98 40l130 131q7 6 7 15t-7 15z" />
    <glyph glyph-name="uniE62A" unicode="&#xe62a;" 
d="M188 611h647l-319 -222zM634 352q-6 4 -13 4t-12 -5.5t-4.5 -13t5.5 -12.5l227 -201h-649l226 201q6 5 6.5 12.5t-4.5 13t-12 5.5t-13 -4l-233 -208v445l348 -236q4 -3 9.5 -3t10.5 3l348 242v-457zM870 646h-709q-16 0 -27 -11.5t-11 -27.5v-480q0 -15 10 -26l1 -1v-1
q2 -2 5 -3q10 -8 22 -8h709q16 0 27.5 11.5t11.5 27.5v480q0 16 -11.5 27.5t-27.5 11.5z" />
    <glyph glyph-name="uniE62B" unicode="&#xe62b;" 
d="M916 473q0 -4 -3.5 -7.5t-8.5 -3.5h-784q-4 0 -7.5 3.5t-3.5 7.5v151q0 4 3.5 7.5t7.5 3.5h784q5 0 8.5 -3.5t3.5 -7.5v-151zM853 204h-321v219h321v-219zM795 -53h-263v219h321v-161q0 -24 -17 -41t-41 -17zM172 5v161h321v-219h-263q-24 0 -41 17t-17 41zM493 423v-219
h-321v219h321zM258 785q16 32 50 42t65 -7q64 -35 113 -146h-201q-27 18 -35 50t8 61zM652 820q31 17 64.5 7t50.5 -41.5t7 -65.5q-9 -29 -34 -46h-202q50 111 114 146zM904 674h-110q11 17 17 35q14 50 -10 95t-73.5 59.5t-94.5 -9.5q-68 -37 -121 -144q-52 107 -121 144
q-45 24 -94 9.5t-73 -59.5q-17 -32 -15 -66.5t22 -63.5h-111q-20 0 -35 -14.5t-15 -35.5v-151q0 -20 15 -35t35 -15h13v-418q0 -40 28.5 -68.5t68.5 -28.5h565q40 0 68 28.5t28 68.5v418h13q21 0 35.5 15t14.5 35v151q0 21 -14.5 35.5t-35.5 14.5z" />
    <glyph glyph-name="uniE62C" unicode="&#xe62c;" 
d="M565 125h-93l28 88l-13 9q-22 16 -22 43q0 22 15.5 38t38 16t38 -16t15.5 -38q0 -27 -22 -43l-13 -9zM616 265q0 40 -28.5 68.5t-69 28.5t-69 -28.5t-28.5 -68.5q0 -39 28 -68l-36 -116h211l-36 116q28 29 28 68zM808 -40q0 -4 -4 -4h-571q-4 0 -4 4v523q0 4 4 4h571
q4 0 4 -4v-523zM350 645q0 69 49.5 118t119 49t119 -49t49.5 -118v-114h-337v114zM804 531h-74v114q0 87 -62 148.5t-149.5 61.5t-149.5 -61.5t-62 -148.5v-114h-74q-20 0 -34 -14t-14 -34v-523q0 -19 14 -33t34 -14h571q20 0 34 14t14 33v523q0 20 -14 34t-34 14z" />
    <glyph glyph-name="uniE62D" unicode="&#xe62d;" 
d="M590 162q-3 -8 0.5 -16t11.5 -11l133 -50q-97 -66 -216 -66q-104 0 -192 51t-139.5 139t-51.5 191q0 9 -6 15t-14.5 6t-15 -6t-6.5 -15q0 -114 57 -211.5t155 -154.5t213 -57q120 0 222 62l-24 -112q-2 -8 2.5 -15.5t13.5 -9.5h4q17 0 21 17l40 188l-181 67
q-8 3 -16 -0.5t-11 -11.5zM950 362q0 -9 -6 -15t-14.5 -6t-15 6t-6.5 15q0 103 -51 191t-139.5 139t-192.5 51q-118 0 -216 -67l133 -49q9 -3 12.5 -11t0.5 -16q-5 -13 -20 -13q-4 0 -7 1l-181 67l40 188q2 9 9 13.5t15.5 3t13.5 -9t3 -15.5l-24 -112q102 62 221 62
q116 0 213.5 -57t154.5 -154.5t57 -211.5z" />
    <glyph glyph-name="uniE62E" unicode="&#xe62e;" 
d="M774 61.5q0 -7.5 -5.5 -13t-13.5 -5.5h-40v-39q0 -8 -5.5 -13.5t-13 -5.5t-13 5.5t-5.5 13.5v39h-40q-8 0 -13.5 5.5t-5.5 13t5.5 13t13.5 5.5h40v39q0 8 5.5 13.5t13 5.5t13 -5.5t5.5 -13.5v-39h40q8 0 13.5 -5.5t5.5 -13zM697 -59q-51 0 -86.5 35.5t-35.5 85t35.5 84.5
t86 35t86 -35t35.5 -84.5t-35.5 -85t-85.5 -35.5zM697 218q-66 0 -113 -46t-47 -111t47 -111t113 -46t112.5 46t46.5 111t-46.5 111t-112.5 46zM516.5 279q-136.5 0 -229.5 34t-93 74v106q45 -37 134 -57.5t188 -20.5t188 20.5t135 57.5v-106q0 -40 -93 -74t-229.5 -34z
M516.5 828q136.5 0 229.5 -34t93 -74.5t-93 -74.5t-229.5 -34t-229.5 34t-93 74.5t93 74.5t229.5 34zM839 560q0 -41 -93 -74.5t-229.5 -33.5t-229.5 33.5t-93 74.5v92q45 -37 134 -57.5t188 -20.5t188 20.5t135 57.5v-92zM516 865q-90 0 -170.5 -16t-135 -50t-54.5 -79
v-492q0 -57 87 -97t224 -47h1q8 0 13.5 5t5.5 12q0 8 -5 13.5t-13 6.5q-121 6 -198 38.5t-77 68.5v92q45 -37 134 -57.5t188 -20.5t188 20.5t135 57.5v-92q0 -8 5.5 -13.5t13 -5.5t13 5.5t5.5 13.5v492q0 45 -54 79t-135 50t-171 16z" />
    <glyph glyph-name="uniE62F" unicode="&#xe62f;" 
d="M450 110h-95l28 92l-13 10q-23 17 -23 45q0 23 16 39.5t39.5 16.5t39.5 -16.5t16 -39.5q0 -28 -23 -45l-13 -10zM504 257q0 42 -30 72t-71.5 30t-71.5 -30t-30 -72q0 -41 30 -71l-38 -121h219l-38 121q30 30 30 71zM703 485v-547q0 -4 -5 -4h-591q-5 0 -5 4v547q0 5 5 5
h591q5 0 5 -5zM771 875q-91 0 -155.5 -64.5t-64.5 -155.5v-120h-444q-21 0 -35.5 -14.5t-14.5 -35.5v-547q0 -21 14.5 -35.5t35.5 -14.5h591q21 0 35.5 14.5t14.5 35.5v547q0 21 -14.5 35.5t-35.5 14.5h-101v120q0 72 51 123.5t123 51.5t123 -51.5t51 -123.5v-142
q0 -10 6.5 -16.5t16 -6.5t16 6.5t6.5 16.5v142q0 91 -64 155.5t-155 64.5z" />
    <glyph glyph-name="uniE630" unicode="&#xe630;" 
d="M841 316l-326 -327l-326 327q-107 106 -107 227q0 90 54 144t144 54q31 0 57 -6t43.5 -13.5t38.5 -26t33 -32t37 -41.5l12 -14q6 -7 14.5 -7t14.5 7l12 14q25 28 37 41.5t33 32t38.5 26t43.5 13.5t57 6q90 0 144 -54t54 -144q0 -121 -108 -227zM751 779q-36 0 -66 -6.5
t-50.5 -16t-44 -29t-37 -34t-38.5 -43.5q-30 36 -47.5 53.5t-46.5 38.5t-63 29t-78 8q-106 0 -171.5 -65t-65.5 -171q0 -66 30.5 -131.5t88.5 -122.5l340 -341q5 -5 13.5 -5t13.5 5l340 341q58 57 88.5 122.5t30.5 131.5q0 106 -65.5 171t-171.5 65z" />
    <glyph glyph-name="uniE631" unicode="&#xe631;" 
d="M143 463q0 29 21 50t51 21t51 -21t21 -50v-47q0 -29 -21 -50t-51 -21t-51 21t-21 50v47zM214.5 313q43.5 0 74.5 30t31 73v47q0 43 -31 73.5t-74.5 30.5t-74 -30.5t-30.5 -73.5v-47q0 -43 30.5 -73t74 -30zM1008 292v-36q0 -20 -14.5 -34.5t-34.5 -14.5h-142v-31
q0 -29 -21.5 -50t-51.5 -21h-437q-30 0 -51.5 21t-21.5 50v31h-149q-21 0 -35.5 14.5t-14.5 34.5v36q0 35 44 48l26 10q6 3 12.5 0t9 -9t0 -12.5t-9.5 -8.5l-28 -11q-21 -6 -21 -17v-36q0 -7 5 -11.5t12 -4.5h149q3 48 68 67l66 18q6 2 12 -1.5t8 -10t-1.5 -12.5t-9.5 -8
l-66 -17q-44 -13 -44 -40v-60q0 -16 12 -27.5t28 -11.5h437q16 0 28 11.5t12 27.5v60q0 27 -44 40l-63 17q-6 2 -9.5 7.5t-1.5 12t8 10t12 1.5l63 -17q65 -18 68 -67h142q7 0 11.5 4.5t4.5 11.5v36q0 11 -21 17h-2l-25 10q-6 3 -8.5 9.5t0 12.5t9 8.5t12.5 0.5l24 -10
q44 -13 44 -48zM758 463q0 29 21 50t51 21t51 -21t21 -50v-47q0 -29 -21 -50t-51 -21t-51 21t-21 50v47zM829.5 313q43.5 0 74.5 30t31 73v47q0 43 -31 73.5t-74.5 30.5t-74 -30.5t-30.5 -73.5v-47q0 -43 30.5 -73t74 -30zM394 525q0 54 39 92.5t94 38.5t94 -38.5t39 -92.5
v-79q0 -54 -39 -92.5t-94 -38.5t-94 38.5t-39 92.5v79zM526.5 283q68.5 0 117.5 48t49 115v79q0 68 -49 116t-117.5 48t-117.5 -48t-49 -116v-79q0 -67 49 -115t117.5 -48z" />
    <glyph glyph-name="uniE632" unicode="&#xe632;" 
d="M827 448q-31 0 -52.5 22t-21.5 53t21.5 53t52.5 22t52.5 -22t21.5 -53t-21.5 -53t-52.5 -22zM627 448q-31 0 -52.5 22t-21.5 53t21.5 53t52.5 22t52.5 -22t21.5 -53t-21.5 -53t-52.5 -22zM627 808q31 0 52.5 -22t21.5 -53t-21.5 -53t-52.5 -22t-52.5 22t-21.5 53t21.5 53
t52.5 22zM827 808q31 0 52.5 -22t21.5 -53t-21.5 -53t-52.5 -22t-52.5 22t-21.5 53t21.5 53t52.5 22zM727 598q-13 18 -31 30q11 7 19 16q6 6 12 14q13 -18 31 -30q-18 -12 -31 -30zM896 628q26 17 41 45t15 60q0 52 -36.5 89t-88.5 37q-62 0 -100 -51q-38 51 -100 51
q-52 0 -88.5 -37t-36.5 -89q0 -32 15 -60t41 -45q-26 -17 -41 -45t-15 -60q0 -34 17 -63l-432 -435q-7 -7 -7 -17.5t7.5 -18t18 -7.5t17.5 7l42 42l114 -115q8 -7 18.5 -7t17.5 7t7 18t-7 18l-114 115l37 38l79 -79q7 -8 17.5 -8t18 7.5t7.5 18t-7 18.5l-79 79l279 281
q33 -25 74 -25q62 0 100 51q38 -51 100 -51q52 0 88.5 37t36.5 89q0 32 -15 60t-41 45z" />
    <glyph glyph-name="uniE633" unicode="&#xe633;" 
d="M283 -193q14 0 24 10l458 459q10 10 10 24t-10 24l-458 459q-10 10 -24 10t-24 -10t-10 -24.5t10 -24.5l434 -434l-434 -434q-10 -10 -10 -24.5t10 -24.5t24 -10z" />
    <glyph glyph-name="uniE634" unicode="&#xe634;" 
d="M512 -96q-124 0 -212 88t-88 212q0 99 60 179v241q0 99 70.5 169.5t169.5 70.5t169.5 -70.5t70.5 -169.5v-241q60 -80 60 -179q0 -124 -88 -212t-212 -88zM692 624q0 75 -52.5 127.5t-127.5 52.5t-127.5 -52.5t-52.5 -127.5v-180q80 60 180 60t180 -60v180zM699 354h-7v8
q-34 39 -80.5 60.5t-99.5 21.5q-99 0 -169.5 -70.5t-70.5 -169.5t70.5 -169.5t169.5 -70.5t169.5 70.5t70.5 169.5q0 84 -53 150zM512 84q-12 0 -21 9t-9 21v120q0 12 9 21t21 9t21 -9t9 -21v-120q0 -12 -9 -21t-21 -9z" />
    <glyph glyph-name="uniE635" unicode="&#xe635;" 
d="M319 283q89 12 148.5 80t59.5 159q0 100 -70.5 171t-170.5 71t-171 -71t-71 -171q0 -91 60 -159t149 -80v-116h-157v-67h157v-156h66v156h157v67h-157v116zM111 522q0 73 51.5 124t123.5 51t123.5 -51.5t51.5 -123.5t-51.5 -123t-123.5 -51t-123.5 51t-51.5 123zM111 522
zM505 154q0 -100 70.5 -170.5t170.5 -70.5t171 70.5t71 170.5q0 91 -60 159t-148 80l-1 245l64 -64l48 48l-145 144l-145 -144l48 -48l64 64v-245q-89 -12 -148.5 -80t-59.5 -159v0zM921 154q0 -72 -51 -123.5t-123.5 -51.5t-123.5 51.5t-51.5 123.5t51 123.5t123.5 51.5
t123.5 -51t51.5 -124zM921 154z" />
    <glyph glyph-name="uniE636" unicode="&#xe636;" 
d="M717 222h-412q-11 0 -19.5 -7.5t-8.5 -18.5t8.5 -18.5t19.5 -7.5h412q12 0 20 7.5t8 18.5t-8.5 18.5t-19.5 7.5zM770 406h-518q-12 0 -20 -7.5t-8 -18.5t8 -18.5t20 -7.5h518q12 0 20 7.5t8 18.5t-8.5 18.5t-19.5 7.5zM305 538h412q12 0 20 7.5t8 18.5t-8 18.5t-20 7.5
h-412q-11 0 -19.5 -7.5t-8.5 -18.5t8.5 -18.5t19.5 -7.5zM511 858q-97 0 -185.5 -38t-152.5 -102t-102 -152.5t-38 -185.5t38 -185.5t102 -152.5t152.5 -102t185.5 -38t185.5 38t152.5 102t102 152.5t38 185.5t-38 185.5t-102 152.5t-152.5 102t-185.5 38zM511 -62
q-90 0 -172 35t-141 94.5t-94 141t-35 171.5t35 172t94 141t141 94t172 35t172 -35t141 -94t94 -141t35 -172t-35 -171.5t-94 -141t-141 -94.5t-172 -35z" />
    <glyph glyph-name="uniE637" unicode="&#xe637;" 
d="M510 856q-97 0 -185.5 -37.5t-152.5 -101.5t-102 -152.5t-38 -185.5t38 -185.5t102 -152.5t152.5 -102t185.5 -38t185.5 38t152.5 102t101.5 152.5t37.5 185.5t-37.5 185.5t-101.5 152.5t-152.5 101.5t-185.5 37.5zM510 -51q-117 0 -216 57.5t-156.5 156.5t-57.5 216
t57.5 216t156.5 156.5t216 57.5t216 -57.5t156.5 -156.5t57.5 -216t-57.5 -216t-156.5 -156.5t-216 -57.5zM620 269q-16 10 -20 30.5t-1.5 32.5t5.5 18q40 34 58 91q10 3 17.5 15t10.5 29q2 18 -3.5 32t-15.5 18q-5 77 -44 123.5t-110 46.5h-1q-72 0 -110.5 -46.5
t-44.5 -123.5q-10 -4 -15 -18t-3 -32q2 -17 10 -29t18 -15q18 -57 58 -91q3 -6 5.5 -18t-1.5 -32.5t-20 -30.5q-14 -9 -55 -23t-67.5 -32t-31.5 -47q-1 -7 -3.5 -17.5t-3.5 -15t0.5 -12.5t7.5 -11.5t17.5 -8.5t31 -7t48 -4.5t68 -3.5t91.5 -1q53 0 92.5 1t68 3.5t48 4.5
t31 7t17.5 8.5t7 11.5t0.5 12.5t-3.5 15t-4 17.5q-4 29 -30.5 47t-67.5 32t-55 23z" />
    <glyph glyph-name="uniE638" unicode="&#xe638;" 
d="M738 -96q-75 0 -198 76q-117 72 -228 180l-24 24q-108 111 -180 228q-76 123 -76 198q0 73 68 164q13 17 28 33.5t42 36.5t48 20q28 0 68 -41q29 -31 63 -78q32 -46 53 -87q25 -47 25 -71q0 -30 -31 -52q-14 -10 -46 -24q-28 -12 -35 -17q6 -23 39 -73q41 -59 88 -107
q48 -47 107 -88q50 -34 73 -39q5 7 17 35q14 32 24 46q22 31 52 31q24 0 71 -25q41 -21 87 -53q47 -34 78 -63q41 -40 41 -68q0 -21 -20 -48t-36.5 -42t-33.5 -28q-91 -68 -164 -68zM351 201q107 -104 219 -173q109 -67 168 -67q53 0 127 54q31 23 52 47q15 17 18 27
q-5 11 -30 34.5t-70 54.5q-40 28 -76 47q-31 16 -43 18q-4 -3 -9.5 -12t-15.5 -32q-12 -29 -20 -40q-19 -29 -46 -29h-1q-35 1 -107 50q-63 43 -115 93l-1 1q-50 52 -93 115q-49 72 -50 107q-1 28 28 47q12 8 41 20q23 10 32 15.5t12 9.5q-2 12 -18 43q-19 36 -47 76
q-31 45 -54.5 70t-34.5 30q-10 -3 -27 -18q-24 -21 -47 -52q-54 -74 -54 -127q0 -59 67 -169q69 -111 173 -218zM351 201z" />
    <glyph glyph-name="uniE639" unicode="&#xe639;" horiz-adv-x="1174" 
d="M1017 728h-870q-45 0 -77 -32t-32 -77v-544q0 -45 32 -77t77 -32h870q46 0 77.5 32t31.5 77v544q0 45 -31.5 77t-77.5 32zM1072 102q0 -34 -24 -58t-58 -24h-816q-34 0 -58 24t-24 58v490q0 34 24 57.5t58 23.5h816q34 0 58 -23.5t24 -57.5v-490zM936 619h-109
q-34 0 -58 -24t-24 -58v-108q0 -34 24 -58t58 -24h109q34 0 57.5 24t23.5 58v108q0 34 -23.5 58t-57.5 24zM963 456q0 -23 -16 -39t-38 -16h-55q-22 0 -38 16t-16 39v54q0 23 16 39t38 16h55q22 0 38 -16t16 -39v-54zM174 347h490v-55h-490v55zM174 238h490v-54h-490v54z
" />
    <glyph glyph-name="uniE63A" unicode="&#xe63a;" 
d="M956 355.5q0 -89.5 -35 -171.5t-94.5 -141.5t-142 -94.5t-173 -35t-172.5 35t-141.5 94.5t-95 141.5t-35.5 171q0 9 6.5 15.5t15.5 6.5t15.5 -6.5t6.5 -15.5q0 -108 53.5 -199.5t146 -145t201 -53.5t201 53.5t146 145t53.5 199.5t-53.5 200t-146 145.5t-200.5 53.5
q-125 0 -226 -70l139 -51q8 -3 12 -11.5t1 -16.5q-6 -15 -21 -15q-4 0 -7 2l-190 70l42 197q2 9 9.5 14t16.5 3t14 -9.5t3 -16.5l-25 -117q106 65 232 65q90 0 172.5 -35.5t142 -94.5t94.5 -141t35 -171.5z" />
    <glyph glyph-name="uniE63B" unicode="&#xe63b;" 
d="M119.5 519q10.5 0 18 -5.5t7.5 -13t-7.5 -13t-18.5 -5.5v-20v20q-10 0 -17.5 5.5t-7.5 13t7.5 13t18 5.5zM902.5 520q10.5 0 18 -5.5t7.5 -13t-7.5 -13t-18.5 -5.5v-20v20q-10 0 -17.5 5.5t-7.5 13t7.5 13t18 5.5zM119 442q27 0 46 16.5t20 40.5l15 169v2q0 32 21 54
q21 23 50 23h220v-258q0 -8 6 -14t14 -6t14 6t6 14l-1 258h220q30 0 50.5 -22.5t20.5 -54.5l16 -170q1 -24 20 -41t45 -17q27 1 46.5 18t19.5 41.5t-19.5 42t-46.5 17.5q-16 0 -30 -7l-11 117q0 49 -32.5 83t-78.5 34l-479 -1q-46 0 -79 -35q-32 -34 -32 -82l-10 -117
q-15 7 -31 7q-27 0 -46 -17.5t-19 -42t19 -41.5t46 -17zM819.5 236.5q-9.5 -9.5 -22.5 -9.5v-20v20q-13 0 -22.5 9.5t-9.5 23t9.5 23t22.5 9.5t22.5 -9.5t9.5 -23t-9.5 -23zM796.5 333q-29.5 0 -50.5 -21.5t-21 -52t21 -51.5t51 -21t51 21.5t21 51.5t-21.5 51.5t-51 21.5z
M225 226v-20v20q-13 0 -22.5 10t-9.5 23t9.5 22.5t22.5 9.5t22.5 -9.5t9.5 -22.5t-9.5 -22.5t-22.5 -10.5zM225 332q-30 0 -51 -21.5t-20.5 -51.5t21.5 -51.5t50 -21.5q30 0 51 21.5t21 51.5t-21 51.5t-51 21.5zM940 153q-13 -13 -31 -13l-796 -1v-20v20q-18 0 -30.5 13
t-12.5 32l-1 144q0 18 13 31t31 14h796q18 0 31 -13t13 -31v-144q0 -19 -13 -32zM848 28q0 -4 -4 -4h-85q-1 0 -2.5 1t-1.5 3v71h93v-71zM267 27q0 -2 -1 -3t-3 -1h-85q-1 0 -2.5 1t-1.5 3v71l93 1v-72zM992 329q0 35 -24.5 60t-58.5 25l-796 -1q-34 0 -58.5 -25t-24.5 -60
v-144q0 -36 24.5 -61t58.5 -25h21l1 -71q0 -19 12.5 -32t30.5 -13h85q18 0 31 13.5t13 31.5v72h409v-71q0 -19 12.5 -32t30.5 -13h85q18 0 31 13t13 32v71h21q35 0 59.5 25.5t23.5 60.5v144z" />
    <glyph glyph-name="uniE63C" unicode="&#xe63c;" 
d="M957 390q-6 -6 -14.5 -6t-14.5 6l-415 426l-416 -433q-6 -7 -15 -7q-8 0 -14 6t-6.5 15t5.5 15l166 173v195q0 8 6 14.5t15 6.5t15 -6.5t6 -14.5v-152l223 232q6 7 15 7t15 -6l429 -441q7 -7 6.5 -15.5t-6.5 -14.5zM821 -53h-183v243q0 9 -6 15t-15 6h-207q-9 0 -15 -6
t-6 -15v-243h-183v440l308 317l307 -317v-440zM530 748q-7 7 -15 7q-9 0 -15 -7l-330 -338q-6 -6 -6 -15v-469q0 -9 6.5 -15t14.5 -6h225q9 0 15 6t6 15v243h165v-243q0 -9 6.5 -15t14.5 -6h225q8 0 14.5 6t6.5 15v469q0 9 -6 15z" />
    <glyph glyph-name="uniE63D" unicode="&#xe63d;" 
d="M655 -22q55 60 89 161.5t37 224.5h168q-7 -134 -88.5 -239.5t-205.5 -146.5zM88 364h162q3 -121 36 -221.5t87 -161.5q-121 44 -199.5 148t-85.5 235zM373 793q-54 -61 -87 -161.5t-36 -220.5h-162q7 131 85.5 235t199.5 147zM542 411v404q77 -20 132 -135t59 -269h-191z
M542 -41v405h191q-4 -154 -59 -269.5t-132 -135.5zM495 364v-406q-79 15 -136 131.5t-62 274.5h198zM495 817v-406h-198q5 157 62 273.5t136 132.5zM949 411h-168q-3 122 -37 223.5t-89 161.5q125 -41 206 -146.5t88 -238.5zM519 866h-1h-1h-1h-1h-3h-2q-96 -2 -183 -40.5
t-150 -102.5t-100 -152t-37 -184v0q0 -96 37.5 -184t100.5 -152t150.5 -102.5t183.5 -39.5q1 0 2 -1h1h1h2h1v0v0q97 0 185.5 38t152.5 102.5t102 153t38 185.5t-38 186t-102 153t-152.5 102t-185.5 38z" />
    <glyph glyph-name="uniE63E" unicode="&#xe63e;" 
d="M661 334l-11 -6v-146h-102v301q21 -12 45 -12q37 0 63 24.5t26 58.5q0 8 -6.5 14t-15.5 6t-15 -6t-6 -14q0 -18 -13.5 -30t-32 -12t-32 12t-13.5 30v6q0 9 -6.5 15t-15.5 6t-15 -6t-6 -15q0 -17 -13.5 -29.5t-32 -12.5t-32 12.5t-13.5 29.5q0 9 -6.5 15t-15.5 6t-15 -6
t-6 -15q0 -34 26 -58.5t62 -24.5q25 0 46 12v-307h-102v146l-11 6q-67 35 -106 96.5t-39 132.5q0 109 82 185.5t197.5 76.5t197 -76.5t81.5 -185.5q0 -71 -38.5 -132.5t-105.5 -96.5zM526.5 866q-87.5 0 -162 -40.5t-117.5 -110.5t-43 -152q0 -79 41.5 -148t114.5 -110v-164
h333v164q72 41 114 110t42 148q0 82 -43.5 152t-117.5 110.5t-161.5 40.5zM701 73q0 -8 -6.5 -14t-15.5 -6h-306q-9 0 -15 6t-6 14t6 14t15 6h306q9 0 15.5 -6t6.5 -14zM526 -60q-12 0 -21.5 6.5t-12.5 17.5h69q-4 -11 -13.5 -17.5t-21.5 -6.5zM679 4h-306q-9 0 -15 -5.5
t-6 -14t6 -14.5t15 -6h74q4 -28 26.5 -46.5t52.5 -18.5t52.5 18.5t26.5 46.5h74q9 0 15.5 6t6.5 14.5t-6.5 14t-15.5 5.5z" />
    <glyph glyph-name="uniE63F" unicode="&#xe63f;" 
d="M289 765h190l-162 -221h-214zM724 504h210l-361 -429zM365 544l153 207l153 -207h-306zM682 504l-164 -464l-164 464h328zM313 504l151 -429l-361 429h210zM934 544h-214l-163 221h190zM991 537l-219 260q-6 7 -15 7h-477q-9 0 -15 -7l-220 -260q-8 -10 -2 -21q1 -2 2 -5
l473 -561l473 561q2 3 3 5q5 11 -3 21z" />
    <glyph glyph-name="uniE640" unicode="&#xe640;" 
d="M909 462l-424 -430l-304 308l424 429q2 2 5 0l299 -303q1 -1 1 -2.5t-1 -1.5zM323 -41l-214 216h-1l68 107l251 -255zM210 -35l-39 1l-75 77l40 41l96 -97zM713 796l223 -226q10 -9 0 -19l-24 -25l-243 245l25 25q10 10 19 0zM968 602l-224 226q-17 17 -40.5 17
t-40.5 -17l-25 -25q-13 11 -31 11q-19 0 -33 -14l-455 -460l25 -26l-73 -115q-8 -13 -6.5 -28.5t12.5 -26.5l28 -29l-72 -72l120 -121l75 -3l35 36l28 -28q13 -13 32 -13q13 0 23 7l113 74l26 -26l455 461q14 14 14 34q0 17 -11 31l25 25q16 17 16 41t-16 41z" />
    <glyph glyph-name="uniE641" unicode="&#xe641;" 
d="M956 346q0 -89 -35 -170.5t-94 -140.5t-141 -94t-171.5 -35t-171.5 35t-141.5 94t-94.5 140.5t-35 170.5q0 9 6.5 15t15.5 6t15.5 -6t6.5 -15q0 -108 53.5 -199t145 -144t199.5 -53t200 53t145.5 144t53.5 198.5t-53.5 199t-145.5 144.5t-200 53q-123 0 -224 -69l138 -52
q8 -3 12 -11t1 -17q-5 -14 -21 -14q-4 0 -7 2l-189 70l42 195q2 9 9.5 14t16.5 3t14 -9.5t3 -16.5l-25 -116q106 64 230 64q90 0 172 -35t141 -93.5t94 -140t35 -170.5z" />
    <glyph glyph-name="uniE642" unicode="&#xe642;" 
d="M999 59q0 -47 -71.5 -81.5t-179 -51t-231.5 -16.5q-92 0 -177 9.5t-154 28t-110.5 47t-41.5 64.5q0 30 29 55t76.5 40.5t85 24t77.5 14.5q9 1 16 -4.5t8.5 -14.5t-4 -16t-14.5 -8q-48 -7 -88 -16.5t-65.5 -19.5t-43.5 -20.5t-25.5 -19t-7.5 -15.5q0 -23 52 -46.5
t156.5 -41t230.5 -17.5t230 17.5t156 41t52 46.5q0 7 -7.5 15.5t-25.5 19t-44 20.5t-66 19.5t-89 16.5q-9 1 -14 8.5t-4 16.5t8.5 14t15.5 4q40 -5 78.5 -13.5t86 -24.5t76.5 -41t29 -55zM424 577q0 38 27.5 65t65.5 27t65 -27t27 -65t-27 -65t-65 -27t-65.5 27t-27.5 65z
M653 577q0 56 -40 96t-96.5 40t-96 -40t-39.5 -96t39.5 -96t96 -40t96.5 40t40 96zM517 811q101 0 172.5 -71t71.5 -172q0 -53 -21 -113.5t-49 -109.5t-65.5 -99.5t-61.5 -78t-47 -51.5q-23 23 -47.5 50.5t-62 77.5t-65.5 98.5t-48.5 110t-20.5 115.5q0 101 71.5 172
t172.5 71zM502 69l15 -14l15 14q13 13 33.5 34t66.5 78t81 113t63 132t28 142q0 119 -84 203t-203 84t-203.5 -84t-84.5 -203q0 -68 28.5 -144.5t63.5 -132.5t81 -112t66 -76.5t34 -33.5z" />
    <glyph glyph-name="uniE643" unicode="&#xe643;" 
d="M863 -29h-684v182q0 92 65.5 165.5t172.5 101.5q17 5 20 23t-12 28q-39 25 -60.5 64t-21.5 85q0 73 52 125t125.5 52t126 -52t52.5 -125q0 -45 -21.5 -84.5t-60.5 -64.5q-15 -10 -12 -28t20 -23q107 -28 172.5 -101.5t65.5 -165.5v-182zM689 458q66 68 66 162
q0 96 -68.5 164.5t-165.5 68.5t-165.5 -68.5t-68.5 -164.5q0 -94 65 -162q-105 -41 -167 -123.5t-62 -181.5v-210q0 -12 8 -20t20 -8h740q12 0 20 8t8 20v210q0 99 -62.5 181.5t-167.5 123.5z" />
    <glyph glyph-name="uniE644" unicode="&#xe644;" 
d="M761 56q0 -7 -5 -12.5t-13 -5.5h-36v-36q0 -7 -5 -12.5t-12 -5.5t-12 5.5t-5 12.5v36h-36q-8 0 -13 5.5t-5 12.5t5 12t13 5h36v37q0 7 5 12t12 5t12 -5t5 -12v-37h36q8 0 13 -5t5 -12zM690 -57q-46 0 -78.5 33t-32.5 79.5t32.5 79.5t78.5 33t78.5 -33t32.5 -79.5
t-32.5 -79.5t-78.5 -33zM690 203q-60 0 -103 -43t-43 -104t43 -104t103 -43t102.5 43t42.5 104t-42.5 104t-102.5 43zM914 221v-86q0 -37 -25 -64q-5 -6 -12 -6t-12 4q-5 5 -5.5 12t4.5 13q16 17 16 41v86q0 44 -67 63l-87 25q-7 2 -10.5 8t-1.5 13t8 10.5t13 1.5l88 -25
q91 -26 91 -96zM515 56q0 -7 -5 -12.5t-12 -5.5h-293q-40 0 -68 28.5t-28 68.5v86q0 69 91 96l92 26q6 2 12.5 -1.5t8.5 -10.5t-1.5 -13.5t-10.5 -8.5l-92 -25q-23 -7 -38 -16t-20 -19t-6.5 -15.5t-1.5 -12.5v-86q0 -25 18 -43.5t44 -18.5h293q7 0 12 -5t5 -12zM320 636
q0 81 56.5 138t136.5 57t136.5 -57t56.5 -138v-112q0 -81 -56.5 -138t-136.5 -57t-136.5 57t-56.5 138v112zM513 294q94 0 160.5 67.5t66.5 162.5v112q0 95 -66.5 162.5t-160.5 67.5t-160.5 -67.5t-66.5 -162.5v-112q0 -95 66.5 -162.5t160.5 -67.5z" />
    <glyph glyph-name="uniE645" unicode="&#xe645;" 
d="M511 179l192 190q7 7 7 18t-7.5 18.5t-18 7.5t-18.5 -8l-129 -128v494q0 11 -7.5 18.5t-18.5 7.5t-18.5 -7.5t-7.5 -18.5v-494l-129 128q-8 8 -18.5 8t-18 -7.5t-7.5 -18.5t8 -18zM983 291v-325h-944v325q0 11 7.5 18.5t18 7.5t18.5 -7.5t8 -18.5v-274h841v274
q0 11 7.5 18.5t18 7.5t18 -7.5t7.5 -18.5z" />
    <glyph glyph-name="uniE646" unicode="&#xe646;" 
d="M197 756q0 26 18 44t43 18h520q25 0 43 -18t18 -44v-507h-560q-47 0 -82 -32v539zM279 208h580q9 0 15 6t6 14v528q0 43 -30 73t-72 30h-520q-42 0 -71.5 -30t-29.5 -73v-631q0 -51 35.5 -87t86.5 -36h219v-91q0 -11 9.5 -17t19.5 -1l81 41l82 -41q4 -2 9 -2q6 0 11 3
q9 6 9 17v91h140q9 0 15 6t6 14.5t-6 14.5t-15 6h-140v62h140q9 0 15 6t6 14.5t-6 14.5t-15 6h-160q-8 0 -14 -6t-6 -15v-180l-61 31q-10 5 -19 0l-61 -31v180q0 9 -6 15t-14 6h-245q-8 0 -14 -6t-6 -14.5t6 -14.5t14 -6h225v-62h-219q-34 0 -58 24t-24 58t24 58.5t58 24.5z
" />
    <glyph glyph-name="uniE647" unicode="&#xe647;" 
d="M356 582l131 130v-501q0 -11 7.5 -18.5t18.5 -7.5t18.5 7.5t7.5 18.5v501l131 -130q8 -8 19 -8t18.5 8t7.5 19t-8 18l-194 193l-194 -193q-7 -7 -7.5 -18t7.5 -18.5t18.5 -8t18.5 7.5zM992 288v-331h-957v331q0 11 7.5 18.5t18.5 7.5t18.5 -7.5t7.5 -18.5v-278h852v278
q0 11 8 18.5t18.5 7.5t18.5 -7.5t8 -18.5z" />
    <glyph glyph-name="uniE648" unicode="&#xe648;" 
d="M876 505q-6 6 -14 6t-14 -6l-330 -337l-126 129q-6 6 -14.5 6t-14.5 -6t-6 -14.5t6 -14.5l155 -158l358 366q6 6 6 14.5t-6 14.5zM448 794h62q-2 11 -11 18.5t-20.5 7.5t-20 -7.5t-10.5 -18.5zM282 773q0 9 6 15t15 6h104q2 28 23 48t49 20t48.5 -20t22.5 -48h105
q8 0 14 -6t6 -15t-6 -15t-14 -6h-352q-9 0 -15 6t-6 15zM381 653q-8 0 -14 -6t-6 -14.5t6 -14.5t14 -6h196q8 0 14 6t6 14.5t-6 14.5t-14 6h-196zM809 292v-389h-661v823h661v-184q0 -8 -5.5 -14t-14 -6t-14.5 6t-6 14v143h-580v-741h580v347q0 9 6 15t14.5 6t14 -6t5.5 -14
z" />
    <glyph glyph-name="uniE649" unicode="&#xe649;" 
d="M505.5 -89q-95.5 0 -182.5 37t-150 100t-100 150t-37 182t37 182t100 150t150 100t182.5 37t182 -37t149.5 -100t100.5 -150t37.5 -182t-37.5 -182t-100.5 -150t-149.5 -100t-182 -37zM505.5 817q-88.5 0 -169.5 -34.5t-140 -93t-93.5 -139.5t-34.5 -170t34.5 -170
t93.5 -139.5t140 -93t169.5 -34.5t169.5 34.5t139.5 93t93.5 139.5t35 170t-35 170t-93.5 139.5t-139.5 93t-169.5 34.5zM583.5 43q-6.5 0 -11.5 5t-5 11.5t5 11.5q63 62 95.5 144t32.5 165t-32.5 164.5t-95.5 144.5q-11 11 0 22.5t23 0.5q90 -90 122 -211t0 -242t-122 -211
q-5 -5 -11.5 -5zM452 130q-7 0 -11 5q-12 11 0 23q92 92 92 222t-92 222q-12 12 -0.5 23t22.5 0q102 -102 102 -245.5t-102 -244.5q-4 -5 -11 -5zM307.5 202q-6.5 0 -11.5 5q-11 11 0 23q62 62 62 150t-62 150q-11 11 0 22.5t23 0.5q71 -72 71 -173t-71 -173q-5 -5 -11.5 -5
z" />
    <glyph glyph-name="uniE64A" unicode="&#xe64a;" 
d="M876 -2h-737q-27 0 -46.5 19.5t-19.5 46.5v561q0 30 24 49q22 17 59 17h43l5 30q1 28 29 48q23 16 49 16h258q26 0 51 -16q31 -19 32 -48l5 -30h264q19 0 36 -22q14 -21 14 -44v-561q0 -27 -19.5 -46.5t-46.5 -19.5zM156 640q-20 0 -28 -6q-4 -4 -4 -9v-561
q0 -6 4.5 -10.5t10.5 -4.5h737q6 0 10.5 4.5t4.5 10.5v561q0 8 -6 15h-301l-12 77v1q-2 5 -11 10q-11 6 -21 6h-258q-9 0 -19 -6q-8 -6 -8 -9v-2v-2l-12 -75h-87zM405 149q-87 0 -148.5 61.5t-61.5 148.5t61.5 148.5t148.5 61.5t148.5 -61.5t61.5 -148.5t-61.5 -148.5
t-148.5 -61.5zM405.5 517q-65.5 0 -112 -46.5t-46.5 -112t46.5 -112t112 -46.5t112 46.5t46.5 112t-46.5 112t-112 46.5zM794 489h-123q-10 0 -17.5 7.5t-7.5 18t7.5 18t17.5 7.5h123q11 0 18.5 -7.5t7.5 -18t-7.5 -18t-18.5 -7.5z" />
    <glyph glyph-name="uniE64B" unicode="&#xe64b;" 
d="M991 3h-958v776h958v-776zM78 48h868v685h-868v-685zM672 550.5q0 -28.5 20 -48.5t48.5 -20t48.5 20t20 48.5t-20 48.5t-48.5 20t-48.5 -20t-20 -48.5zM56 231q-11 0 -17 7q-7 7 -6.5 16.5t7.5 16.5l297 273q7 7 16.5 6.5t15.5 -7.5l251 -274q7 -7 6.5 -16.5t-7.5 -15.5
t-16.5 -6t-15.5 7l-236 258l-280 -259q-7 -6 -15 -6zM968.5 94q-9.5 0 -16.5 7l-235 235l-166 -167q-7 -6 -16.5 -6t-16 6.5t-6.5 16t7 15.5l182 183q7 7 16.5 7t16.5 -7l251 -251q6 -7 6 -16.5t-6 -15.5q-7 -7 -16.5 -7z" />
    <glyph glyph-name="uniE64C" unicode="&#xe64c;" 
d="M426.5 172q-127.5 0 -218 90t-90.5 217.5t90.5 217.5t218 90t218 -90t90.5 -217.5t-90.5 -217.5t-218 -90zM961 -32l-261 260q103 109 103 258q0 102 -50 189t-137 137t-189.5 50t-189 -50t-137 -137t-50.5 -189t50.5 -188.5t137 -136.5t189.5 -50q122 0 221 72l264 -264
q11 -10 25 -10t24 10t10 24t-10 25z" />
    <glyph glyph-name="uniE64D" unicode="&#xe64d;" 
d="M616 835v-86h179l-176 -189q-67 47 -151.5 58.5t-168.5 -16.5t-144 -92q-65 -71 -86 -163.5t7 -183.5t99 -157t163 -86t182 7.5t156 98.5q93 100 97.5 230.5t-85.5 239.5l185 200v-204h85v343h-342zM610.5 87.5q-73.5 -79.5 -182.5 -83.5t-188.5 69.5t-83.5 182.5
t70 188.5t182.5 83.5t188 -70t83.5 -182.5t-69.5 -188z" />
    <glyph glyph-name="uniE64E" unicode="&#xe64e;" 
d="M609 829q-94 0 -174 -46.5t-126.5 -126.5t-46.5 -175q0 -127 82 -224l-111 -111l-117 118q-9 9 -20 8.5t-19.5 -8.5t-8.5 -19.5t8 -19.5l118 -119l-118 -119q-9 -8 -9 -19.5t8.5 -19.5t20 -8t19.5 8l118 119l119 -120q8 -8 19.5 -8t19.5 8t8 19.5t-8 19.5l-119 120
l111 112q98 -84 226 -84q95 0 175 46.5t126.5 126.5t46.5 174.5t-46.5 174.5t-127 126.5t-174.5 46.5zM609 189q-121 0 -206.5 85.5t-85.5 207t85.5 207t206.5 85.5t207 -85.5t86 -207t-86 -207t-207 -85.5z" />
    <glyph glyph-name="uniE64F" unicode="&#xe64f;" 
d="M862 373q-77 -77 -186 -77q-47 0 -91 16q-15 6 -26 -5l-337 -334q-12 -13 -42 -13q-45 0 -76 31q-19 18 -26.5 43.5t-4.5 45t13 28.5l336 334q11 11 6 26q-27 72 -10 147t71 129q77 77 187 77q33 0 65 -8l-94 -94q-40 -39 -40 -94.5t39.5 -95t95.5 -39.5t95 40l95 93
q17 -67 -1.5 -133.5t-68.5 -116.5zM965 678q-5 13 -18 15.5t-22 -7.5l-123 -122q-25 -24 -60 -24t-60 24.5t-25 59.5t25 60l123 122q9 9 6.5 22t-14.5 18q-58 24 -121 24q-130 0 -222 -91q-62 -61 -83 -146t5 -167l-325 -323q-20 -19 -26 -52t5 -70.5t39 -64.5
q45 -45 111 -45q50 0 77 27l326 323q45 -14 93 -14q130 0 222 91q67 67 85.5 160t-18.5 180z" />
    <glyph glyph-name="uniE650" unicode="&#xe650;" 
d="M910 302q0 -5 -3.5 -8.5t-9.5 -3.5h-55q-5 0 -9 3.5t-4 8.5v197q0 5 4 9t9 4h55q6 0 9.5 -4t3.5 -9v-197zM200 499v-197q0 -5 -3.5 -8.5t-8.5 -3.5h-59q-5 0 -9 3.5t-4 8.5v197q0 5 4 9t9 4h59q5 0 8.5 -4t3.5 -9zM897 553h-10q-24 135 -130 223.5t-244 88.5t-244 -88.5
t-130 -223.5h-10q-23 0 -39.5 -16t-16.5 -38v-197q0 -22 16.5 -38t39.5 -16h59q23 0 39 16t16 38v197q0 22 -16 38t-39 16h-5q24 115 118 192.5t212 77.5t212.5 -77.5t118.5 -192.5h-2q-23 0 -39.5 -16t-16.5 -38v-197q0 -22 16.5 -38t39.5 -16h55q24 0 40 16t16 38v197
q0 22 -16 38t-40 16zM921 88v-83q0 -40 -29.5 -68t-71.5 -28h-614q-41 0 -70.5 28t-29.5 68v83q0 69 94 96l92 24q9 3 16.5 -1.5t10 -12.5t-2 -15.5t-12.5 -10.5l-92 -24q-22 -6 -36 -14.5t-19.5 -17.5t-6.5 -13.5t-1 -10.5v-83q0 -23 17 -39t40 -16h614q24 0 41 16t17 39
v83q0 38 -64 56l-87 24q-9 2 -13 9.5t-1.5 15.5t10 12.5t16.5 1.5l87 -23q29 -8 49 -20.5t29.5 -27t13 -26t3.5 -22.5zM326 485q0 76 55.5 129.5t133.5 53.5t133.5 -53.5t55.5 -129.5v-108q0 -75 -55.5 -128.5t-133.5 -53.5t-133.5 53.5t-55.5 128.5v108zM515 154
q96 0 164 65.5t68 157.5v108q0 93 -68 158.5t-164 65.5t-164 -65.5t-68 -158.5v-108q0 -92 68 -157.5t164 -65.5z" />
    <glyph glyph-name="uniE651" unicode="&#xe651;" 
d="M799.5 421q-50.5 -51 -121.5 -51t-121.5 51t-50.5 123t50.5 122.5t121.5 50.5t121.5 -51t50.5 -122.5t-50.5 -122.5zM835 702.5q-65 65.5 -157 65.5t-157 -65.5t-65 -158.5t65 -158.5t157 -65.5t157 65.5t65 158.5t-65 158.5zM867.5 353q-78.5 -79 -189.5 -79t-189.5 79
t-78.5 191t78.5 191t189.5 79t189.5 -79t78.5 -191t-78.5 -191zM393 157l-180 -181q-21 -21 -49.5 -21t-48.5 20.5t-20 49.5t20 49l180 182q20 20 48.5 20t49 -20.5t20.5 -49.5t-20 -49zM903 770.5q-93 93.5 -225 93.5t-225 -93q-88 -89 -92.5 -215t75.5 -220l-28 -29
q-29 20 -64 20q-50 0 -85 -36l-180 -181q-35 -35 -35 -85t35 -85.5t84.5 -35.5t84.5 36l180 181q30 30 34.5 73t-18.5 78l28 28q89 -77 206 -77q132 0 225 94t93 227t-93 226.5z" />
    <glyph glyph-name="uniE652" unicode="&#xe652;" 
d="M802 161q0 -9 -6.5 -15.5t-15.5 -6.5h-437q-9 0 -15.5 6.5t-6.5 15.5t6.5 15.5t15.5 6.5h437q9 0 15.5 -6.5t6.5 -15.5zM802 304q0 -9 -6.5 -15.5t-15.5 -6.5h-437q-9 0 -15.5 6.5t-6.5 15.5t6.5 15.5t15.5 6.5h437q9 0 15.5 -6.5t6.5 -15.5zM802 442q0 -9 -6.5 -15.5
t-15.5 -6.5h-437q-9 0 -15.5 6.5t-6.5 15.5t6.5 15.5t15.5 6.5h437q9 0 15.5 -6.5t6.5 -15.5zM919 19h-744q7 15 7 32v535q0 4 4 4h696h1h63q4 0 4 -4v-535q0 -13 -9 -22.5t-22 -9.5zM75 51v687q0 4 4 4h777q4 0 4 -4v-104h-674q-20 0 -34 -14t-14 -34v-535
q0 -13 -9.5 -22.5t-22.5 -9.5t-22 9.5t-9 22.5zM946 634h-41v104q0 20 -14.5 34t-34.5 14h-777q-20 0 -34.5 -14t-14.5 -34v-687q0 -32 22.5 -54t53.5 -22h813q31 0 53 22t22 54v535q0 20 -14 34t-34 14z" />
    <glyph glyph-name="uniE653" unicode="&#xe653;" 
d="M514.5 283q-41.5 0 -71 29.5t-29.5 71t29.5 70.5t71 29t71 -29t29.5 -70.5t-29.5 -71t-71 -29.5zM514.5 529q-60.5 0 -103 -42.5t-42.5 -103t42.5 -103t103 -42.5t103 42.5t42.5 103t-42.5 103t-103 42.5zM955 331h-123q-18 0 -22 -18q-10 -44 -33 -83q-9 -15 3 -27
l94 -94l-74 -74l-91 91q-13 13 -29 3q-44 -29 -95 -41q-18 -4 -18 -22v-123h-105v123q0 18 -17 22q-44 10 -83 33q-16 9 -28 -3l-83 -83l-74 74l80 80q13 13 3 29q-29 44 -41 95q-4 18 -22 18h-123v105h123q18 0 22 17q13 51 41 96q10 15 -3 28l-80 81l74 74l83 -83
q12 -13 28 -4q39 23 83 33q17 5 17 23v123h105v-123q0 -18 18 -23q51 -12 95 -40q16 -11 29 2l91 92l74 -74l-94 -94q-12 -12 -3 -28q23 -39 33 -83q4 -17 22 -17h123v-105zM978 481h-128q-10 33 -26 63l98 98q7 6 7 15.5t-7 16.5l-106 106q-7 7 -16 7t-16 -7l-95 -95
q-36 21 -77 33v129q0 9 -6.5 15.5t-15.5 6.5h-150q-10 0 -16.5 -6.5t-6.5 -15.5v-129q-33 -9 -63 -25l-87 87q-7 7 -16.5 7t-15.5 -7l-106 -106q-7 -7 -7 -16.5t7 -15.5l84 -84q-21 -37 -33 -77h-129q-9 0 -15.5 -6.5t-6.5 -16.5v-150q0 -9 6.5 -16t15.5 -7h129
q11 -40 33 -76l-84 -84q-7 -7 -7 -16.5t7 -15.5l106 -107q6 -6 16 -6t16 6l87 88q30 -16 63 -26v-128q0 -10 6.5 -16.5t16.5 -6.5h150q9 0 15.5 6.5t6.5 16.5v128q41 12 77 33l95 -95q6 -6 16 -6t16 6l106 107q7 6 7 15.5t-7 16.5l-98 98q16 30 26 62h128q9 0 16 7t7 16v150
q0 10 -7 16.5t-16 6.5z" />
    <glyph glyph-name="uniE654" unicode="&#xe654;" 
d="M512 -55q-83 0 -157 12t-124 31t-79 42.5t-29 47.5v113q55 -46 162.5 -71t227 -25t227 25t162.5 71v-113q0 -24 -29 -47.5t-79 -42.5t-124.5 -31t-157.5 -12zM512 815q83 0 157.5 -12t124.5 -31t79 -43t29 -47.5t-29 -47t-79 -42.5t-124.5 -31t-157.5 -12t-157 12
t-124 31t-79 42.5t-29 47t29 47.5t79 43t124 31t157 12zM902 486q0 -24 -29 -47.5t-79 -42.5t-124.5 -31t-157.5 -12t-157 12t-124 31t-79 42.5t-29 47.5v113q55 -45 162.5 -70.5t227 -25.5t227 25.5t162.5 70.5v-113zM902 274q0 -24 -29 -47.5t-79 -42.5t-124.5 -31
t-157.5 -12t-157 12t-124 31t-79 42.5t-29 47.5v129q55 -45 162.5 -70.5t227 -25.5t227 25.5t162.5 70.5v-129zM512 860q-109 0 -206 -19.5t-162.5 -61.5t-65.5 -97v-604q0 -55 65.5 -97t162.5 -62t206 -20t206.5 20t163 62t65.5 97v604q0 55 -65.5 97t-163 61.5
t-206.5 19.5z" />
    <glyph glyph-name="uniE655" unicode="&#xe655;" 
d="M523 153q0 -7 -6.5 -7t-6.5 7t6.5 7t6.5 -7zM466 152.5q0 -21.5 14.5 -37t35.5 -15.5t36 15.5t15 37t-15 37t-36 15.5t-35.5 -15.5t-14.5 -37zM516 495q9 0 15.5 -6.5t6.5 -16.5v-212q0 -10 -6.5 -16.5t-15.5 -6.5t-15.5 6.5t-6.5 16.5v212q0 10 6.5 16.5t15.5 6.5z
M99 -29l417 810l417 -810h-834zM988 -39l-452 879q-7 12 -20 12t-19 -12l-453 -881q-6 -12 0 -23t19 -11h906h1q9 0 15.5 7t6.5 16q0 7 -4 13z" />
    <glyph glyph-name="uniE656" unicode="&#xe656;" 
d="M892 81l-102 2l2 102q1 12 -7.5 20.5t-20.5 9t-20.5 -8t-9.5 -20.5l-2 -102l-102 3q-12 0 -20.5 -8.5t-9 -20.5t8 -20.5t20.5 -8.5l101 -3l-2 -102q0 -12 8 -20.5t20 -9t21 8t9 20.5l3 102l101 -3q12 0 21 8.5t9 20.5t-8 20.5t-20 9.5zM529 314q2 -12 11.5 -19.5
t21.5 -6.5q90 11 174.5 -18t149.5 -94q9 -9 21 -9t21 8.5t8.5 21t-8.5 21.5q-75 74 -172.5 108t-201.5 21q-11 -1 -19 -11t-6 -22zM119.5 -116.5q12.5 -0.5 21 8t9.5 21.5q3 105 56.5 192.5t142.5 137t192 45.5q121 -3 209.5 81.5t92.5 208t-79.5 213t-204.5 93.5
t-209.5 -81t-91.5 -208q-3 -81 36.5 -153t108.5 -113q-134 -42 -221 -156.5t-91 -257.5q-1 -13 7.5 -22t21 -9.5zM557.5 824q96.5 -3 163 -74.5t63.5 -170t-73.5 -166.5t-167 -65t-163 75t-63.5 170.5t73.5 166t167 64.5z" />
    <glyph glyph-name="uniE657" unicode="&#xe657;" 
d="M330 -87q86 -39 182 -39t183 39q76 34 135 93q16 -4 33 -4q66 0 112.5 46t46.5 112q0 38 -17.5 71.5t-46.5 55.5q1 15 1 31q0 77 -26 149q-24 69 -70 127t-107 98q-53 35 -115 53q-5 62 -50.5 104t-107.5 42q-65 0 -111.5 -46t-46.5 -111v-11q-110 -51 -179 -151
q-79 -114 -79 -252q0 -15 1 -32q-29 -22 -46 -55t-17 -71q0 -65 46 -111.5t112 -46.5q16 0 32 3q58 -59 135 -94zM958 160q0 -39 -28 -66.5t-67 -27.5t-66.5 27.5t-27.5 67t28 67t67 27.5t66.5 -28t27.5 -67zM483 828q39 -1 67 -28.5t27.5 -66.5t-28 -66.5t-66.5 -27.5
t-67 27.5t-28 66.5t28 67t67 28zM69 162q0 39 27.5 66.5t66.5 27.5t67 -27.5t27.5 -66.5t-28 -66.5t-66.5 -27.5t-67 27.5t-27 66.5zM321 162q0 65 -46 111.5t-112 46.5q-16 0 -32 -3v3q0 109 57 200.5t154 139.5q20 -38 57.5 -61.5t82.5 -23.5q52 0 93 29.5t57 76.5
q118 -38 190.5 -138t72.5 -225v-3q-15 3 -31 3q-66 0 -112.5 -46t-46.5 -111q0 -38 16.5 -71t45.5 -55q-52 -47 -118.5 -72t-136.5 -25q-71 0 -136.5 25.5t-118.5 71.5q30 22 47 55t17 72zM321 162z" />
    <glyph glyph-name="uniE658" unicode="&#xe658;" 
d="M186 669l41 41v-652l-41 41h652l-41 -41v652l41 -41h-652zM186 710h652v-652h-652v652z" />
    <glyph glyph-name="uniE65A" unicode="&#xe65a;" 
d="M832 396q-41 0 -76 -19l-119 143q35 44 35 100q0 66 -47 113t-113.5 47t-113 -47t-46.5 -113q0 -78 61 -126l-180 -359q-20 6 -41 6q-66 0 -113 -47t-47 -113.5t47 -113.5t113 -47t113 47t47 113q0 78 -61 126l179 359q21 -5 42 -5q40 0 75 19l119 -143q-35 -44 -35 -100
q0 -66 47 -113t113.5 -47t113.5 47t47 113.5t-47 113t-113 46.5zM191.5 -115q-39.5 0 -67.5 28t-28 67.5t28 67.5t67.5 28t68 -28t28.5 -67.5t-28.5 -67.5t-68 -28zM416 620q0 40 28 68t67.5 28t67.5 -28t28 -68t-28 -68t-67.5 -28t-67.5 28t-28 68zM831.5 141
q-39.5 0 -67.5 28t-28 67.5t28 67.5t67.5 28t67.5 -28t28 -67.5t-28 -67.5t-67.5 -28z" />
    <glyph glyph-name="uniE65B" unicode="&#xe65b;" horiz-adv-x="1025" 
d="M991 493q-3 9 -13 10l-325 28l-127 301q-4 9 -14 9t-14 -9l-127 -301l-325 -28q-10 -1 -13 -10t4 -16l247 -214l-74 -318q-2 -10 6 -15.5t16 -0.5l280 169l280 -169q3 -2 7 -2q5 0 9 3q8 6 6 15l-59 252q7 3 15 8t14.5 9t12 8t8.5 6l3 3q-2 -1 -7 -3t-24 -7t-43 -9.5
t-66 -8.5t-91 -6t-120 -0.5t-152 6.5l285 207q-12 17 -368 30q-3 0 1 1q50 15 189 25q197 13 334 -16l-286 -206q13 -2 36.5 -4.5t99 -7t152.5 -3.5l-8 34l247 214q7 7 4 16z" />
  </font>
</defs>
</svg>
